<?xml version="1.0" standalone="no"?>
<!DOCTYPE svg PUBLIC "-//W3C//DTD SVG 20010904//EN"
 "http://www.w3.org/TR/2001/REC-SVG-20010904/DTD/svg10.dtd">
<svg version="1.0" xmlns="http://www.w3.org/2000/svg"
 width="768.000000pt" height="461.000000pt" viewBox="0 0 768.000000 461.000000"
 preserveAspectRatio="xMidYMid meet">

<g transform="translate(0.000000,461.000000) scale(0.100000,-0.100000)"
fill="#000000" stroke="none">
<path d="M5560 3397 c0 -6 69 -183 106 -274 14 -34 32 -67 40 -74 19 -16 18
-11 -15 67 -15 38 -45 113 -66 166 -20 53 -43 102 -51 109 -8 6 -14 9 -14 6z"/>
<path d="M6210 3254 c0 -17 60 -298 65 -303 18 -17 -33 260 -54 295 -5 11 -11
14 -11 8z"/>
<path d="M6782 3125 c0 -55 4 -129 8 -165 6 -53 7 -39 7 75 1 77 -3 151 -7
165 -5 16 -8 -11 -8 -75z"/>
<path d="M5030 3164 c0 -4 26 -48 58 -98 32 -50 101 -169 152 -265 52 -96 96
-169 98 -163 4 13 -172 342 -243 452 -40 63 -65 91 -65 74z"/>
<path d="M5617 2898 c-75 -101 -317 -430 -461 -628 -66 -91 -162 -219 -215
-285 -92 -117 -379 -464 -384 -466 -14 -3 -869 -28 -947 -27 -100 1 -102 1
-40 8 36 4 124 9 195 10 72 1 119 5 106 9 -52 14 -33 48 29 52 l45 4 -3 -33
c-4 -36 3 -38 88 -23 33 6 37 9 16 10 -21 1 -27 5 -22 17 3 9 6 18 6 20 0 2
23 4 50 4 43 0 50 -3 50 -20 0 -14 5 -18 18 -13 20 8 32 23 32 41 0 9 -58 12
-255 12 -214 0 -257 -2 -261 -15 -9 -22 7 -41 18 -21 6 10 22 16 44 16 31 0
35 -3 32 -22 -3 -22 -8 -23 -138 -29 -74 -4 -154 -7 -178 -8 -32 -1 -50 -8
-70 -28 l-27 -27 -504 2 c-277 1 -506 4 -509 7 -13 12 24 127 70 215 56 110
123 192 201 243 63 42 160 77 219 78 24 1 54 5 68 9 l25 8 -25 8 c-22 7 -17
10 35 21 121 25 280 13 409 -32 163 -57 340 -199 420 -337 31 -54 44 -68 62
-68 29 0 29 0 0 58 -32 63 -106 161 -157 207 -62 56 -181 130 -259 162 -38 15
-70 31 -70 35 0 19 77 58 116 58 43 0 59 -11 66 -45 5 -19 5 -19 13 -2 9 22
-9 65 -31 74 -26 10 -105 -15 -152 -48 -43 -29 -43 -29 -124 -19 -45 5 -83 12
-86 15 -10 10 71 96 114 121 51 30 94 27 94 -6 0 -11 5 -20 11 -20 6 0 9 14 7
33 -3 28 -7 32 -35 35 -17 2 -49 -6 -70 -16 -36 -19 -135 -114 -144 -139 -2
-7 -41 -16 -86 -22 -81 -10 -320 -84 -392 -121 -63 -32 -135 -95 -186 -161
-58 -78 -130 -221 -146 -295 l-12 -54 -322 0 -321 0 -13 35 c-18 51 -57 92
-115 123 -45 24 -61 27 -141 26 -68 -1 -105 -7 -149 -24 -67 -26 -131 -84
-143 -130 l-8 -31 -229 1 c-241 1 -379 -7 -370 -21 3 -5 139 -9 303 -9 l297 0
34 -35 c54 -56 126 -79 250 -79 93 -1 111 2 160 25 31 14 72 40 92 58 l36 31
856 0 856 0 0 -35 c0 -24 6 -37 19 -45 12 -6 143 -10 348 -11 180 0 434 -4
563 -8 129 -4 240 -4 245 0 6 3 109 9 230 13 121 3 285 10 365 15 80 6 287 15
460 21 330 11 478 24 495 42 7 7 -1 9 -28 5 -22 -4 -35 -2 -32 4 4 5 -15 9
-44 9 -44 0 -51 3 -51 20 0 23 37 28 72 9 13 -7 24 -7 30 -1 14 14 2 18 -63
26 l-56 7 -1 -35 c-1 -20 3 -36 9 -36 6 0 8 -4 5 -8 -3 -5 -108 -12 -233 -16
-280 -8 -605 -23 -777 -36 -72 -6 -174 -10 -227 -10 -107 0 -109 1 -109 78 0
26 4 32 23 33 12 0 114 2 227 4 181 2 305 8 733 30 59 4 107 3 107 0 0 -4 -10
-21 -21 -38 -19 -28 -17 -27 12 5 l34 38 198 1 c109 0 201 -2 204 -5 3 -3 1
-19 -5 -35 -10 -28 -9 -31 10 -31 14 0 18 -5 14 -15 -3 -8 -1 -15 3 -15 5 0
11 6 13 13 4 9 90 13 376 15 219 2 372 7 372 13 0 5 -153 9 -378 9 -208 0
-381 3 -384 6 -15 14 6 43 36 48 65 12 156 77 211 151 50 65 105 132 386 468
118 140 312 393 334 436 20 40 38 136 31 164 -3 14 -13 27 -21 31 -9 3 -132
21 -273 41 -141 19 -435 61 -652 94 -217 32 -418 62 -447 65 l-52 7 -54 -73z
m73 0 c0 -94 -48 -174 -328 -553 -372 -503 -448 -600 -564 -721 -104 -108
-145 -136 -194 -132 l-37 3 114 138 c137 167 371 464 455 579 33 46 130 178
215 293 85 116 193 263 239 328 46 64 87 117 92 117 4 0 8 -24 8 -52z m413 -8
c476 -75 779 -118 876 -126 104 -8 121 -16 121 -54 0 -28 -2 -29 -26 -20 -33
13 -57 13 -49 0 3 -5 19 -10 35 -10 66 0 41 -65 -102 -255 -57 -77 -180 -230
-272 -340 -93 -110 -212 -254 -266 -320 -176 -218 -194 -228 -390 -232 -74 -2
-299 -8 -500 -15 -201 -6 -376 -11 -390 -11 -14 0 -96 4 -182 8 -114 6 -158 5
-158 -3 0 -7 31 -12 83 -15 56 -2 38 -4 -57 -5 l-140 -2 105 108 c124 127 163
173 299 352 56 74 106 134 111 133 14 -4 227 272 218 282 -3 2 -51 -59 -108
-136 -57 -77 -106 -137 -108 -135 -3 3 74 110 170 239 272 365 334 465 345
563 4 41 7 44 33 44 16 0 174 -23 352 -50z m-4596 -1300 c58 -33 103 -91 103
-132 0 -39 -48 -81 -118 -102 -88 -27 -229 -19 -297 16 -107 56 -122 100 -57
169 50 55 121 78 232 79 76 0 90 -3 137 -30z m2293 -50 c-6 -12 -14 -20 -17
-17 -2 3 1 14 8 26 17 26 24 19 9 -9z m190 5 c0 -8 -7 -15 -15 -15 -13 0 -14
3 -3 15 16 18 18 18 18 0z m-164 -22 c-10 -10 -19 5 -10 18 6 11 8 11 12 0 2
-7 1 -15 -2 -18z m724 -59 c6 -14 10 -43 10 -65 l0 -39 -582 2 -583 3 -3 53
-3 52 198 1 c109 1 290 5 403 9 113 3 283 7 378 8 l172 2 10 -26z m1457 -40
c-3 -3 -12 -4 -19 -1 -8 3 -5 6 6 6 11 1 17 -2 13 -5z"/>
<path d="M5611 2834 c-29 -42 -51 -77 -49 -79 2 -2 27 30 57 71 29 41 52 77
49 79 -2 3 -28 -30 -57 -71z"/>
<path d="M4831 1773 c-28 -38 -67 -87 -87 -110 -20 -24 -34 -43 -31 -43 8 0
136 152 157 188 31 50 17 38 -39 -35z"/>
<path d="M5752 2875 c0 -16 2 -22 5 -12 2 9 2 23 0 30 -3 6 -5 -1 -5 -18z"/>
<path d="M5816 2860 c12 -5 122 -22 245 -40 224 -31 411 -58 589 -85 52 -8
127 -14 165 -13 39 1 54 3 35 5 -19 2 -190 26 -380 53 -682 96 -697 98 -654
80z"/>
<path d="M5808 2793 c6 -2 18 -2 25 0 6 3 1 5 -13 5 -14 0 -19 -2 -12 -5z"/>
<path d="M5694 2758 c-38 -64 -38 -65 -10 -35 14 15 26 32 26 38 0 13 -7 11
-16 -3z"/>
<path d="M6221 2738 c0 -9 -21 -47 -46 -84 -54 -80 -57 -90 -9 -33 45 54 66
96 61 117 -4 16 -5 16 -6 0z"/>
<path d="M6262 2705 c-17 -37 -14 -45 4 -12 9 16 14 31 11 33 -2 2 -9 -7 -15
-21z"/>
<path d="M6330 2722 c0 -6 34 -16 75 -23 61 -11 75 -16 70 -29 -3 -9 1 -8 10
5 19 24 10 30 -60 39 -27 4 -60 10 -72 13 -13 3 -23 0 -23 -5z"/>
<path d="M6292 2685 c-7 -14 -12 -28 -12 -29 0 -4 117 -26 135 -26 5 0 4 5 -1
10 -6 6 -34 13 -62 17 -48 5 -51 7 -46 29 8 32 0 31 -14 -1z"/>
<path d="M6697 2674 c-4 -4 -7 -17 -7 -28 1 -19 1 -20 11 -3 11 19 8 43 -4 31z"/>
<path d="M6778 2643 c12 -2 32 -2 45 0 12 2 2 4 -23 4 -25 0 -35 -2 -22 -4z"/>
<path d="M7051 2614 c-28 -47 -23 -53 8 -8 13 19 22 37 19 40 -3 3 -15 -12
-27 -32z"/>
<path d="M6908 2633 c12 -2 32 -2 45 0 12 2 2 4 -23 4 -25 0 -35 -2 -22 -4z"/>
<path d="M6934 2452 c-134 -160 -217 -268 -172 -222 12 12 136 158 207 243 8
9 12 19 10 22 -3 2 -23 -17 -45 -43z"/>
<path d="M6468 2413 c6 -2 18 -2 25 0 6 3 1 5 -13 5 -14 0 -19 -2 -12 -5z"/>
<path d="M5555 2350 c17 -4 57 -8 90 -8 57 0 58 1 20 9 -22 4 -62 8 -90 7 -43
0 -46 -1 -20 -8z"/>
<path d="M6445 2240 c72 -12 115 -11 115 0 0 6 -33 9 -82 9 -78 -2 -80 -2 -33
-9z"/>
<path d="M5735 1983 c-145 -167 -169 -201 -70 -98 88 92 180 203 173 210 -2 2
-48 -48 -103 -112z"/>
<path d="M6399 2023 c-13 -16 -12 -17 4 -4 16 13 21 21 13 21 -2 0 -10 -8 -17
-17z"/>
<path d="M5217 1853 c18 -2 50 -2 70 0 21 2 7 4 -32 4 -38 0 -55 -2 -38 -4z"/>
<path d="M6128 1773 c18 -2 45 -2 60 0 15 2 0 4 -33 4 -33 0 -45 -2 -27 -4z"/>
<path d="M5050 1740 c0 -9 278 -3 289 6 2 2 -62 4 -142 4 -90 0 -147 -4 -147
-10z"/>
<path d="M6304 1673 c-27 -31 -42 -53 -34 -48 22 14 98 105 87 105 -3 0 -26
-26 -53 -57z"/>
<path d="M5886 1609 c3 -5 57 -9 121 -9 64 0 114 2 112 4 -10 8 -239 14 -233
5z"/>
<path d="M6210 1590 c-8 -5 -10 -10 -5 -10 6 0 17 5 25 10 8 5 11 10 5 10 -5
0 -17 -5 -25 -10z"/>
<path d="M5248 1563 c7 -3 16 -2 19 1 4 3 -2 6 -13 5 -11 0 -14 -3 -6 -6z"/>
<path d="M4770 1535 c-19 -14 -30 -25 -24 -25 10 1 73 50 63 50 -3 0 -20 -11
-39 -25z"/>
<path d="M5480 1550 l-175 -6 225 -1 c124 -1 250 2 280 7 46 6 37 7 -50 6 -58
0 -184 -3 -280 -6z"/>
<path d="M4898 1543 c28 -2 76 -2 105 0 28 2 5 3 -53 3 -58 0 -81 -1 -52 -3z"/>
<path d="M4141 1441 c-24 -33 -28 -56 -5 -26 20 26 36 55 30 55 -3 0 -14 -13
-25 -29z"/>
<path d="M4481 1436 c-8 -10 -9 -16 -1 -21 13 -8 30 3 30 21 0 18 -14 18 -29
0z"/>
<path d="M3574 1431 c-2 -2 -4 -13 -4 -23 0 -14 8 -18 34 -18 19 0 37 4 40 8
3 5 -8 6 -25 4 -17 -3 -29 0 -29 7 0 17 58 13 68 -5 8 -14 10 -14 14 4 5 18 0
21 -44 24 -27 1 -52 1 -54 -1z"/>
<path d="M3775 1419 c-4 -12 -2 -26 4 -32 8 -8 11 -2 11 21 0 37 -6 41 -15 11z"/>
<path d="M3810 1428 c0 -7 5 -20 10 -28 8 -12 10 -9 10 13 0 15 -4 27 -10 27
-5 0 -10 -6 -10 -12z"/>
<path d="M4416 1424 c-3 -9 -4 -20 0 -25 8 -13 44 9 44 26 0 20 -36 19 -44 -1z"/>
<path d="M3490 1421 c0 -7 -4 -9 -10 -6 -5 3 -10 2 -10 -4 0 -16 21 -24 33
-12 8 8 8 14 -1 23 -9 9 -12 9 -12 -1z"/>
<path d="M3870 1410 c0 -19 3 -21 12 -12 9 9 9 15 0 24 -9 9 -12 7 -12 -12z"/>
<path d="M3920 1411 c0 -12 5 -21 10 -21 6 0 10 6 10 14 0 8 -4 18 -10 21 -5
3 -10 -3 -10 -14z"/>
<path d="M3970 1416 c0 -9 5 -16 10 -16 6 0 10 4 10 9 0 6 -4 13 -10 16 -5 3
-10 -1 -10 -9z"/>
<path d="M4262 1408 c3 -20 9 -23 46 -22 82 2 83 44 1 44 -47 0 -50 -2 -47
-22z m78 2 c11 -7 5 -10 -22 -10 -21 0 -38 5 -38 10 0 13 40 13 60 0z"/>
<path d="M4150 1390 c-6 -11 -8 -20 -6 -20 3 0 10 9 16 20 6 11 8 20 6 20 -3
0 -10 -9 -16 -20z"/>
<path d="M4640 2754 c0 -4 30 -39 68 -78 37 -39 101 -109 142 -156 41 -47 100
-107 130 -135 51 -46 49 -43 -20 35 -42 47 -117 133 -168 192 -84 98 -152 161
-152 142z"/>
<path d="M4310 2236 c0 -4 17 -14 38 -22 43 -18 232 -113 247 -124 13 -10 165
-80 165 -76 0 6 -211 123 -306 170 -91 45 -144 64 -144 52z"/>
<path d="M2795 1816 c-35 -16 -75 -52 -75 -67 0 -6 13 0 30 14 41 35 94 51
143 43 35 -6 39 -5 27 9 -16 19 -84 19 -125 1z"/>
<path d="M3141 1789 c-43 -26 -35 -34 15 -13 27 11 55 15 91 11 29 -3 53 -2
53 3 0 27 -113 27 -159 -1z"/>
<path d="M4142 1745 c6 -6 93 -18 376 -50 23 -2 42 -1 42 3 0 5 -80 18 -177
30 -174 22 -251 27 -241 17z"/>
<path d="M2881 1703 c-38 -36 -47 -66 -25 -88 24 -24 82 -13 112 20 27 32 28
56 4 78 -27 25 -58 21 -91 -10z"/>
<path d="M3275 1669 c-27 -24 -35 -39 -35 -65 0 -44 27 -60 75 -44 42 14 65
44 65 85 0 62 -49 73 -105 24z"/>
<path d="M4191 1568 c-10 -26 -6 -38 14 -38 8 0 11 7 8 20 -5 17 0 20 27 20
26 0 30 -3 25 -19 -5 -17 -1 -19 39 -17 25 2 51 9 61 19 24 25 85 23 92 -3 6
-24 23 -16 23 11 0 27 38 25 49 -3 7 -19 8 -19 14 -4 4 10 5 21 2 26 -3 4 -48
8 -100 8 -74 -1 -98 -4 -104 -16 -6 -11 -10 -11 -16 -3 -5 9 -11 7 -21 -6 -13
-17 -13 -17 -14 5 0 19 -5 22 -45 22 -38 0 -47 -4 -54 -22z"/>
<path d="M2740 1546 c0 -38 25 -56 80 -56 51 0 80 7 80 19 0 4 -25 6 -55 3
-59 -5 -85 7 -85 39 0 11 -4 19 -10 19 -5 0 -10 -11 -10 -24z"/>
<path d="M3110 1526 c0 -7 7 -19 15 -26 18 -15 83 -16 98 -1 8 8 0 11 -30 11
-24 0 -48 7 -57 15 -18 19 -26 19 -26 1z"/>
<path d="M5707 1465 c-10 -14 -14 -25 -9 -25 6 0 17 11 26 25 21 32 7 32 -17
0z"/>
<path d="M5781 1457 c-13 -21 -12 -21 5 -5 10 10 16 20 13 22 -3 3 -11 -5 -18
-17z"/>
<path d="M5289 1456 c9 -11 9 -16 0 -21 -6 -4 -15 -2 -19 5 -6 9 -9 9 -15 0
-12 -19 12 -37 33 -24 24 15 28 54 6 54 -13 0 -14 -3 -5 -14z"/>
<path d="M5033 1448 c-15 -20 -25 -38 -20 -38 3 0 12 11 21 25 17 26 16 35 -1
13z"/>
<path d="M5365 1450 c-10 -16 8 -33 31 -28 20 4 33 38 14 38 -6 0 -9 -4 -5 -9
3 -5 1 -12 -4 -16 -5 -3 -14 2 -19 11 -7 12 -11 13 -17 4z"/>
<path d="M4940 1420 c-6 -11 -8 -20 -6 -20 3 0 10 9 16 20 6 11 8 20 6 20 -3
0 -10 -9 -16 -20z"/>
<path d="M4650 1406 c0 -26 1 -26 68 -24 l67 2 -57 3 c-41 3 -58 8 -58 18 0 8
-4 17 -10 20 -6 4 -10 -5 -10 -19z"/>
<path d="M4686 1422 c-3 -5 23 -8 58 -8 35 1 62 4 59 9 -6 10 -111 9 -117 -1z"/>
<path d="M6275 1400 c-68 -5 -37 -7 122 -8 132 -1 214 2 218 8 7 11 -183 11
-340 0z"/>
<path d="M1050 1372 c0 -10 37 -32 83 -48 23 -8 39 -12 36 -10 -12 12 -119 64
-119 58z"/>
<path d="M1958 1373 c45 -2 119 -2 165 0 45 1 8 3 -83 3 -91 0 -128 -2 -82 -3z"/>
<path d="M2378 1373 c6 -2 18 -2 25 0 6 3 1 5 -13 5 -14 0 -19 -2 -12 -5z"/>
<path d="M683 1363 c32 -2 81 -2 110 0 29 2 3 3 -58 3 -60 0 -84 -1 -52 -3z"/>
<path d="M2618 1363 c12 -2 30 -2 40 0 9 3 -1 5 -23 4 -22 0 -30 -2 -17 -4z"/>
<path d="M6003 1363 c15 -2 39 -2 55 0 15 2 2 4 -28 4 -30 0 -43 -2 -27 -4z"/>
<path d="M3300 1345 c0 -8 5 -15 10 -15 6 0 10 7 10 15 0 8 -4 15 -10 15 -5 0
-10 -7 -10 -15z"/>
<path d="M5837 1353 c18 -2 50 -2 70 0 21 2 7 4 -32 4 -38 0 -55 -2 -38 -4z"/>
<path d="M6503 1353 c9 -2 23 -2 30 0 6 3 -1 5 -18 5 -16 0 -22 -2 -12 -5z"/>
<path d="M5743 1343 c9 -2 23 -2 30 0 6 3 -1 5 -18 5 -16 0 -22 -2 -12 -5z"/>
<path d="M6235 1339 c-66 -4 -250 -15 -410 -23 -242 -13 -482 -31 -665 -49
-20 -2 -9 -4 25 -5 34 -1 137 5 230 12 94 8 307 22 475 32 334 18 633 41 530
41 -36 0 -119 -3 -185 -8z"/>
<path d="M5233 1333 c9 -2 25 -2 35 0 9 3 1 5 -18 5 -19 0 -27 -2 -17 -5z"/>
<path d="M5468 1333 c12 -2 32 -2 45 0 12 2 2 4 -23 4 -25 0 -35 -2 -22 -4z"/>
<path d="M860 1319 c0 -5 9 -9 20 -9 11 0 20 2 20 4 0 2 -9 6 -20 9 -11 3 -20
1 -20 -4z"/>
<path d="M3565 1320 c-134 -3 -207 -8 -186 -12 70 -16 577 -3 521 13 -14 4
-45 6 -70 6 -25 -1 -144 -4 -265 -7z"/>
<path d="M5133 1323 c15 -2 37 -2 50 0 12 2 0 4 -28 4 -27 0 -38 -2 -22 -4z"/>
<path d="M4841 1309 c-74 -4 -141 -10 -150 -13 -21 -7 235 4 324 14 68 7 68 7
15 7 -30 0 -115 -4 -189 -8z"/>
<path d="M6583 1310 c-28 -4 -161 -16 -295 -26 -133 -11 -229 -21 -213 -23 52
-6 612 43 624 55 6 6 -55 3 -116 -6z"/>
<path d="M6020 1264 c-8 -2 -109 -8 -223 -15 -115 -6 -205 -15 -200 -19 7 -7
433 19 442 27 7 5 -3 9 -19 7z"/>
</g>
</svg>
