<?xml version="1.0" standalone="no"?>
<!DOCTYPE svg PUBLIC "-//W3C//DTD SVG 20010904//EN"
 "http://www.w3.org/TR/2001/REC-SVG-20010904/DTD/svg10.dtd">
<svg version="1.0" xmlns="http://www.w3.org/2000/svg"
 width="768.000000pt" height="604.000000pt" viewBox="0 0 768.000000 604.000000"
 preserveAspectRatio="xMidYMid meet">

<g transform="translate(0.000000,604.000000) scale(0.100000,-0.100000)"
fill="#000000" stroke="none">
<path d="M2235 5734 c-49 -30 -96 -61 -104 -69 -14 -13 -9 -45 7 -45 4 0 43
23 87 50 44 28 82 50 85 50 8 0 3 -40 -21 -173 -21 -109 -19 -141 6 -151 16
-6 325 144 344 168 15 18 6 36 -18 36 -10 0 -78 -29 -150 -65 -73 -36 -135
-65 -138 -65 -3 0 -3 7 1 15 3 8 13 65 22 126 18 122 13 179 -14 178 -9 0 -57
-25 -107 -55z"/>
<path d="M1894 5412 c-99 -83 -167 -159 -161 -176 4 -9 10 -16 15 -16 5 0 45
32 88 70 l79 71 5 -104 c8 -161 25 -169 151 -73 112 85 136 111 119 130 -15
19 -22 16 -129 -64 -44 -33 -84 -60 -87 -60 -3 0 -4 59 -2 132 2 92 0 132 -8
135 -7 2 -38 -18 -70 -45z"/>
<path d="M4416 5331 c5 -6 72 -28 149 -50 184 -53 352 -111 621 -215 238 -92
524 -191 508 -177 -5 4 -45 24 -89 44 -44 19 -127 56 -184 81 -239 106 -598
234 -831 296 -114 30 -193 39 -174 21z"/>
<path d="M5869 5208 c-14 -11 -14 -31 -7 -148 5 -74 7 -297 4 -495 -3 -198 -9
-529 -12 -735 -3 -206 -10 -389 -15 -406 -15 -49 -4 -64 47 -64 24 0 44 -4 44
-10 0 -19 16 -10 34 21 17 29 17 31 0 43 -16 12 -16 23 -5 137 12 138 31 423
31 481 0 31 4 38 20 38 27 0 35 -23 59 -155 43 -237 55 -337 71 -615 6 -102
18 -218 25 -259 8 -41 12 -77 9 -80 -5 -6 -251 -31 -307 -31 l-29 -1 7 -69 7
-70 -25 0 c-28 0 -26 -5 -42 138 -5 49 -3 56 25 88 23 26 30 44 30 75 0 107
-94 162 -300 175 -119 8 -184 -13 -263 -85 -51 -47 -53 -48 -104 -44 -51 5
-252 -9 -383 -27 -36 -5 -146 -19 -245 -30 -99 -11 -216 -25 -260 -30 -44 -5
-120 -12 -170 -16 -49 -4 -99 -11 -110 -17 -19 -10 -116 -82 -721 -533 -150
-111 -302 -223 -340 -249 -79 -54 -70 -59 -136 70 -164 321 -388 702 -523 887
-38 53 -86 119 -105 147 -19 27 -60 70 -90 95 -143 121 -203 166 -217 166 -11
0 -13 5 -8 18 33 76 56 188 62 299 7 142 -3 184 -88 358 -58 118 -81 150 -102
142 -8 -3 -56 -64 -106 -136 -51 -72 -96 -133 -102 -137 -5 -3 -27 2 -47 12
-36 17 -68 14 -133 -11 -25 -10 -81 45 -115 112 -28 57 -29 62 -29 208 0 131
3 158 23 218 13 37 21 74 18 82 -4 12 -25 15 -88 15 -128 0 -211 -27 -330
-107 -115 -77 -217 -177 -272 -268 -108 -177 -136 -274 -136 -469 l0 -112 -46
-48 c-56 -59 -117 -183 -139 -282 -16 -68 -16 -80 0 -176 10 -57 22 -110 27
-118 8 -13 9 -13 5 1 -3 9 -8 40 -12 70 -14 114 77 400 148 467 l25 23 -2
-263 -1 -263 44 -125 c41 -119 73 -183 56 -115 -33 139 -55 325 -55 465 l1 75
45 -87 c83 -158 226 -268 394 -304 97 -21 277 -14 370 14 225 67 442 212 536
359 19 29 37 53 42 53 4 0 62 -55 129 -123 l122 -122 11 -95 c12 -110 28 -343
24 -349 -2 -2 -29 18 -60 45 -199 173 -354 277 -460 311 -50 15 -54 15 -85 -3
-98 -56 -89 -185 21 -318 22 -26 40 -52 40 -57 0 -5 37 -48 81 -97 72 -76 131
-148 377 -449 28 -35 52 -73 52 -83 0 -10 -29 -193 -64 -407 -53 -318 -86
-549 -86 -604 0 -5 -18 -9 -40 -9 -76 0 -155 -59 -201 -150 -31 -62 -38 -182
-14 -234 39 -81 159 -113 273 -71 74 27 126 74 163 150 28 57 31 72 27 130 -3
45 -10 73 -24 92 -24 32 -90 73 -119 73 -46 1 -47 10 -16 141 39 162 105 495
136 683 14 82 26 151 28 152 8 8 113 -128 118 -153 4 -15 7 -137 8 -271 l1
-243 -30 -26 c-68 -56 -105 -171 -81 -245 6 -19 27 -50 46 -68 32 -31 42 -35
105 -38 61 -4 78 -1 125 22 66 33 97 73 102 135 3 35 -2 56 -19 86 -27 45
-109 111 -153 123 -30 9 -30 9 -28 73 1 35 -2 138 -7 228 -5 91 -8 166 -7 168
4 4 169 -184 220 -252 25 -33 63 -71 84 -84 21 -13 50 -32 66 -43 15 -10 27
-14 27 -8 0 23 17 7 59 -54 61 -91 106 -126 158 -126 16 1 62 14 103 30 41 17
81 30 88 30 10 0 12 -16 8 -67 -3 -38 -8 -144 -12 -238 -3 -93 -10 -219 -14
-280 -8 -93 -7 -112 6 -126 14 -16 14 -33 4 -145 -6 -71 -17 -160 -25 -199
-20 -102 -24 -151 -14 -166 6 -10 11 -11 20 -2 12 12 65 320 75 434 l5 67 42
5 c24 3 47 1 55 -5 22 -18 31 2 47 107 9 55 27 165 40 245 34 203 45 291 45
370 0 66 -11 93 -31 73 -19 -19 -77 -413 -94 -645 l-7 -88 -65 0 c-58 0 -64 2
-58 17 20 48 26 121 32 385 l6 287 81 32 c45 18 137 57 205 86 68 30 130 52
137 49 8 -3 14 -1 14 4 0 5 13 25 30 43 l30 34 -36 -1 c-35 -1 -35 0 -66 77
-16 43 -28 84 -25 91 3 7 121 59 264 116 401 161 379 149 387 204 6 40 3 54
-18 91 -27 45 -79 85 -112 85 -11 0 -14 3 -8 9 14 13 200 44 227 37 13 -3 54
-37 91 -76 59 -61 67 -72 53 -83 -15 -12 -26 -224 -44 -904 -5 -175 0 -273 13
-260 3 3 9 60 14 128 5 68 19 209 31 314 17 157 20 234 17 452 -1 145 -2 263
-2 263 1 0 57 -62 125 -138 176 -195 343 -364 453 -457 89 -75 94 -81 80 -100
-30 -43 -64 -116 -74 -160 -15 -66 2 -120 53 -169 l40 -38 -84 6 c-46 3 -173
8 -283 12 l-199 6 6 -59 c3 -32 17 -107 31 -168 14 -60 51 -260 81 -444 31
-183 60 -342 66 -352 5 -10 17 -19 26 -19 14 0 15 9 9 67 -22 227 -92 636
-141 823 -13 52 -22 96 -21 98 2 2 72 -1 156 -7 299 -21 1084 -9 1263 20 38 6
71 8 74 5 13 -13 -40 -334 -97 -591 -61 -270 -92 -443 -83 -457 6 -11 31 -10
37 0 10 17 156 661 176 776 24 140 28 326 7 326 -8 0 -17 -3 -20 -6 -4 -4 -86
-8 -184 -9 -98 -1 -222 -6 -276 -10 l-99 -8 54 54 c77 77 95 147 59 224 -59
128 -267 202 -409 146 -29 -12 -57 -21 -62 -21 -13 0 -181 141 -279 235 -46
44 -147 150 -224 235 -191 210 -292 316 -351 369 l-50 44 -70 -6 c-64 -6 -186
-32 -521 -112 -278 -66 -372 -89 -543 -131 -101 -25 -186 -44 -188 -41 -5 4
795 607 922 695 58 41 64 43 170 52 157 14 381 38 514 55 189 24 472 55 513
55 l37 0 0 -55 c0 -52 -2 -55 -24 -55 -27 0 -56 -24 -56 -46 0 -17 -34 -32
-86 -37 -30 -4 -37 -1 -44 19 -8 21 -16 24 -58 24 -55 0 -141 -26 -143 -43 -1
-7 -1 -17 0 -23 1 -6 -17 -14 -39 -18 -37 -6 -40 -9 -40 -37 l0 -31 -80 7
c-72 6 -82 5 -110 -15 l-30 -21 0 -128 c0 -91 4 -132 13 -146 23 -31 31 0 35
139 l4 128 28 -5 c169 -34 916 -33 1505 2 193 11 510 25 705 31 195 6 375 13
400 16 l45 6 -3 -306 c-3 -269 0 -340 22 -574 29 -305 58 -639 81 -957 28
-384 32 -397 33 -105 2 336 -11 607 -44 930 -24 225 -27 300 -28 640 l-1 385
-95 12 c-52 7 -147 12 -211 12 -64 1 -130 4 -147 7 -29 6 -30 8 -34 70 -5 81
-12 89 -75 76 -26 -6 -123 -14 -214 -18 l-166 -7 -7 144 c-11 245 -44 616 -70
799 -44 299 -38 280 -106 385 l-62 95 3 82 4 82 -40 12 -40 11 -5 306 c-4 254
-8 309 -20 321 -21 20 -112 29 -131 14z m88 -400 c-4 -200 -12 -451 -18 -558
-7 -107 -12 -340 -12 -517 l-1 -323 -28 0 c-34 0 -34 -23 -8 321 32 436 45
947 32 1203 -7 120 -9 222 -6 227 3 5 15 9 26 9 l21 0 -6 -362z m-4771 -110
c-28 -97 -37 -172 -34 -278 4 -97 8 -124 30 -171 33 -73 89 -134 152 -166 42
-21 60 -24 118 -21 65 3 70 6 113 48 26 25 73 84 106 133 33 48 62 87 65 87
12 0 103 -209 114 -261 8 -35 11 -99 8 -170 -13 -287 -137 -469 -413 -607
-128 -63 -234 -93 -355 -99 -184 -9 -310 37 -431 157 -77 76 -115 149 -156
296 -26 93 -28 111 -28 304 l0 205 40 79 c43 87 126 209 183 270 43 45 165
128 237 160 86 39 136 52 214 55 40 1 43 0 37 -21z m4864 -257 c0 -60 4 -74
36 -127 111 -180 114 -187 114 -256 0 -35 7 -109 15 -164 18 -126 30 -249 55
-556 11 -136 22 -276 26 -311 l6 -64 -32 -7 c-18 -3 -38 -6 -45 -6 -9 0 -14
57 -19 223 -9 284 -29 493 -67 681 -38 189 -49 216 -97 241 l-37 20 3 179 c3
174 12 233 32 221 5 -3 10 -37 10 -74z m-4580 -327 c0 -2 -17 -4 -37 -3 -33 1
-35 2 -13 8 23 7 50 4 50 -5z m4168 -916 c95 -16 158 -68 144 -120 -7 -28 -84
-75 -161 -98 -91 -29 -292 -29 -338 0 -42 25 -44 65 -8 126 25 42 90 96 130
107 25 7 150 -1 233 -15z m-3980 -28 c107 -50 266 -169 415 -311 l77 -74 -10
-204 c-5 -112 -12 -212 -15 -222 -5 -14 -41 23 -156 161 -82 99 -194 227 -249
284 -55 58 -120 136 -145 175 -40 62 -45 76 -45 127 0 60 18 94 49 94 9 0 44
-13 79 -30z m611 -185 c23 -90 47 -272 38 -281 -5 -6 -56 46 -84 86 -11 15
-34 285 -32 365 1 27 3 24 30 -30 15 -33 37 -96 48 -140z m119 -58 c38 -61
115 -195 172 -297 131 -234 191 -331 243 -393 23 -28 49 -64 57 -81 11 -22 22
-30 35 -27 11 1 115 25 230 52 348 82 518 119 522 115 2 -2 -83 -38 -189 -81
-106 -42 -262 -112 -347 -156 -161 -83 -205 -94 -248 -64 -24 17 -237 281
-396 491 l-107 142 0 74 c0 74 -31 272 -50 323 -19 49 8 15 78 -98z m3336 -9
c18 -120 17 -127 -12 -135 -41 -12 -956 -10 -961 2 -6 15 19 22 123 34 54 6
183 24 285 40 102 16 240 34 306 40 67 6 148 19 180 30 33 10 63 19 67 20 4 1
9 -14 12 -31z m-519 2 c-3 -5 -10 -10 -16 -10 -5 0 -9 5 -9 10 0 6 7 10 16 10
8 0 12 -4 9 -10z m1542 -41 c8 -30 8 -41 -1 -44 -6 -2 -146 -8 -311 -15 -165
-6 -354 -15 -420 -20 -66 -4 -123 -5 -126 -1 -4 3 -4 26 0 51 l6 45 267 4
c224 3 352 8 548 19 22 2 27 -4 37 -39z m-1797 2 c0 -8 -100 -24 -108 -16 -6
5 57 23 86 24 12 1 22 -3 22 -8z m-2565 -387 c61 -78 144 -186 185 -240 96
-124 263 -300 308 -323 34 -17 36 -17 101 6 36 14 105 47 153 74 112 66 265
133 490 218 323 121 336 125 420 126 72 0 79 -2 108 -30 37 -35 63 -81 57 -99
-3 -7 -27 -21 -54 -31 -406 -152 -737 -292 -993 -420 -187 -94 -278 -125 -364
-125 -89 0 -137 34 -241 171 -44 58 -147 183 -228 279 -127 148 -148 177 -143
199 2 14 10 113 17 218 l13 193 30 -37 c17 -21 81 -101 141 -179z m1175 -702
l29 -82 -29 -15 c-72 -37 -589 -246 -607 -245 -9 1 -80 91 -89 113 -4 11 6 19
33 28 42 14 114 46 373 171 96 46 191 91 210 100 19 9 39 16 43 15 4 -1 21
-39 37 -85z m1946 -193 c64 -12 138 -58 164 -101 45 -74 11 -157 -83 -202
-129 -63 -339 -56 -409 14 -24 24 -28 37 -28 82 0 92 67 198 125 198 13 0 26
7 29 16 5 13 18 14 78 9 40 -4 96 -11 124 -16z m-3105 -170 c52 -26 109 -93
109 -128 0 -43 -42 -87 -101 -106 -94 -31 -169 8 -169 89 0 63 19 117 52 148
33 31 43 30 109 -3z m-355 -305 c44 -21 57 -52 52 -122 -5 -73 -38 -129 -100
-169 -37 -25 -51 -28 -121 -28 -75 0 -80 1 -104 29 -23 28 -25 36 -21 107 8
144 81 217 203 204 33 -4 74 -13 91 -21z"/>
<path d="M786 4353 c-30 -100 -34 -299 -7 -358 l18 -40 7 80 c11 122 26 259
31 263 7 7 23 -34 34 -88 8 -38 8 -66 1 -89 -12 -43 -4 -54 11 -15 18 47 23
150 9 184 -14 33 -63 80 -85 80 -8 0 -16 -8 -19 -17z"/>
<path d="M1499 4800 c-61 -65 -96 -134 -79 -155 16 -19 30 -8 65 51 14 24 30
44 34 44 5 0 11 -21 14 -46 6 -56 34 -89 66 -79 31 10 179 123 197 151 17 25
12 44 -13 44 -8 0 -51 -27 -95 -60 -68 -52 -96 -68 -98 -57 -1 1 -3 31 -6 67
-9 110 -16 113 -85 40z"/>
<path d="M4081 4500 c-15 -6 -21 -14 -15 -20 5 -4 133 -11 284 -15 151 -4 371
-13 489 -21 227 -15 539 -18 606 -5 40 7 39 7 -25 14 -36 4 -153 12 -260 17
-107 6 -253 15 -325 20 -202 16 -726 22 -754 10z"/>
<path d="M5160 3828 c-240 -44 -842 -160 -925 -178 -49 -11 -108 -22 -130 -26
-60 -9 -76 -15 -70 -25 8 -12 75 -12 145 1 335 57 703 131 830 167 52 14 142
38 200 54 122 32 100 35 -50 7z"/>
<path d="M5121 3399 c-188 -39 -452 -108 -522 -135 -42 -18 -53 -44 -16 -44
41 0 737 200 737 212 0 5 -3 7 -7 7 -5 -1 -91 -19 -192 -40z"/>
<path d="M4975 751 c-109 -39 -169 -81 -148 -102 7 -7 46 5 124 39 107 47 115
49 133 33 29 -25 76 -113 76 -142 0 -18 -30 -60 -105 -147 -58 -67 -101 -122
-96 -122 15 0 171 141 209 189 28 35 39 41 70 41 46 0 122 34 129 57 5 18 126
100 170 116 34 13 67 1 83 -28 28 -52 128 -101 156 -77 5 5 28 14 51 21 38 10
44 9 79 -14 20 -14 43 -33 50 -43 12 -16 13 -16 19 0 12 30 1 53 -27 56 -19 2
-29 11 -37 34 -9 25 -15 29 -33 25 -13 -3 -52 -13 -86 -22 l-64 -16 -41 38
c-23 20 -50 47 -60 60 -23 28 -91 32 -140 7 -32 -16 -150 -103 -155 -115 -11
-25 -33 -41 -66 -49 -59 -13 -82 0 -89 51 -3 23 -19 60 -35 83 -26 36 -35 41
-73 43 -24 1 -67 -6 -94 -16z"/>
<path d="M3266 721 c-18 -29 -48 -465 -31 -449 14 13 65 337 65 415 0 31 -4
43 -14 43 -8 0 -17 -4 -20 -9z"/>
<path d="M4997 643 c-19 -21 -59 -66 -90 -100 -92 -102 -64 -96 34 6 49 52 94
103 100 113 17 31 -8 21 -44 -19z"/>
<path d="M5577 486 c-113 -104 -283 -284 -276 -291 2 -2 65 47 139 109 192
161 306 286 260 286 -6 0 -61 -47 -123 -104z"/>
<path d="M5278 423 c-90 -87 -167 -164 -171 -171 -22 -35 9 -14 113 75 146
124 230 210 230 234 0 10 -2 19 -5 19 -3 0 -78 -71 -167 -157z"/>
<path d="M5733 383 c-90 -103 -161 -189 -158 -191 11 -11 256 214 315 290 23
30 31 79 15 84 -5 2 -83 -80 -172 -183z"/>
<path d="M5877 260 c-49 -63 -53 -70 -38 -70 10 0 101 110 101 123 0 19 -21 2
-63 -53z"/>
</g>
</svg>
