<?xml version="1.0" standalone="no"?>
<!DOCTYPE svg PUBLIC "-//W3C//DTD SVG 20010904//EN"
 "http://www.w3.org/TR/2001/REC-SVG-20010904/DTD/svg10.dtd">
<svg version="1.0" xmlns="http://www.w3.org/2000/svg"
 width="768.000000pt" height="625.000000pt" viewBox="0 0 768.000000 625.000000"
 preserveAspectRatio="xMidYMid meet">

<g transform="translate(0.000000,625.000000) scale(0.100000,-0.100000)"
fill="#000000" stroke="none">
<path d="M3528 6033 c-33 -4 -38 -8 -48 -41 -6 -24 -10 -481 -10 -1339 0
-1152 2 -1303 15 -1303 13 0 15 154 15 1330 l0 1330 1443 0 1442 0 -1 -228
c-1 -125 -2 -1412 -3 -2859 l-1 -2633 -1440 0 -1440 0 -1 1393 c0 765 0 1427
1 1470 1 64 -1 77 -14 77 -14 0 -16 -143 -16 -1470 l0 -1470 -187 0 -187 0 27
28 c36 37 35 67 -3 87 -39 20 -81 19 -175 -5 -43 -11 -80 -18 -82 -16 -2 2 8
106 23 232 18 157 28 304 31 470 l5 241 -47 119 c-104 260 -356 744 -464 887
l-53 71 11 721 c6 396 8 754 5 796 -4 46 -3 79 3 82 5 3 39 -31 75 -76 152
-189 467 -512 588 -601 l65 -48 335 5 c184 2 342 7 350 11 10 4 20 -5 30 -27
19 -41 52 -57 120 -57 66 0 119 25 139 65 30 61 -25 143 -112 166 -58 15 -86
3 -125 -56 -19 -28 -40 -53 -47 -57 -7 -5 -159 -11 -337 -14 l-323 -6 -50 33
c-60 39 -470 448 -571 569 -140 167 -144 174 -145 243 0 34 -4 86 -8 115 -4
28 -6 52 -4 52 39 0 177 40 238 70 146 70 242 169 316 326 144 304 1 672 -324
833 -45 22 -109 47 -142 54 l-60 14 72 36 c39 20 75 42 79 48 10 18 -30 3
-131 -46 -71 -35 -104 -45 -159 -49 l-70 -6 35 36 c30 32 164 127 193 137 6 2
8 7 4 11 -15 17 -126 -53 -208 -129 -65 -62 -98 -85 -140 -99 -171 -59 -260
-137 -340 -298 -66 -135 -84 -217 -77 -368 6 -129 23 -186 84 -278 63 -95 220
-207 350 -251 34 -11 102 -26 152 -33 64 -9 92 -17 97 -28 3 -8 8 -67 11 -130
l5 -115 -60 -120 c-32 -66 -97 -187 -144 -270 -46 -82 -117 -215 -157 -295
-40 -80 -77 -149 -82 -154 -15 -17 -10 -87 15 -222 33 -176 64 -422 72 -581
l7 -132 -32 -37 c-38 -43 -51 -73 -51 -118 0 -60 63 -83 128 -46 78 44 97 128
40 174 -18 15 -39 31 -45 37 -8 6 -13 36 -13 83 0 166 -49 553 -94 741 l-15
60 75 149 c42 82 122 233 179 335 57 102 118 216 136 254 18 37 36 67 39 67 3
0 6 -10 7 -22 4 -76 -19 -1451 -27 -1583 -14 -230 -50 -453 -120 -738 -27
-112 -32 -122 -85 -187 -74 -90 -257 -267 -475 -458 -96 -84 -183 -165 -192
-180 -24 -37 -24 -122 1 -170 41 -80 118 -115 160 -73 35 35 29 108 -12 163
-18 24 -52 52 -75 64 l-43 20 143 125 c244 213 409 370 490 468 88 106 97 128
148 365 23 104 74 412 92 556 3 21 12 13 59 -60 119 -180 293 -515 404 -776
l75 -175 0 -162 c0 -167 -6 -245 -40 -572 -11 -104 -23 -214 -26 -242 l-5 -53
-944 0 c-835 0 -944 -2 -939 -15 5 -13 345 -15 2975 -15 2632 0 2969 2 2969
15 0 13 -33 15 -235 15 l-235 0 -2 2872 -3 2873 -1420 1 c-781 0 -1437 -1
-1457 -3z m-1044 -481 c152 -55 302 -180 368 -308 63 -121 73 -165 73 -304 -1
-113 -4 -131 -28 -189 -15 -35 -41 -86 -58 -112 -27 -43 -34 -48 -58 -43 -57
12 -169 76 -228 128 -66 60 -73 64 -73 41 0 -45 147 -159 244 -189 l58 -18
-29 -30 c-46 -48 -128 -98 -216 -130 -162 -60 -350 -49 -513 31 -152 74 -259
173 -310 288 -106 237 -3 612 205 751 57 38 91 49 206 68 32 5 36 8 20 14 -41
15 47 29 165 26 86 -2 130 -8 174 -24z m1516 -2161 c14 -9 33 -34 43 -54 31
-62 -5 -97 -102 -97 -58 0 -101 28 -101 67 0 36 30 93 54 103 27 12 75 3 106
-19z m-1946 -1162 c67 -53 -9 -164 -88 -128 -40 18 -34 79 12 132 20 23 43 22
76 -4z m-540 -1463 c49 -29 86 -89 86 -140 0 -62 -59 -62 -107 0 -21 29 -28
50 -31 100 -3 35 -1 64 3 64 5 0 27 -11 49 -24z m1594 -388 c39 -39 -22 -68
-145 -68 -100 0 -128 10 -102 35 36 36 220 60 247 33z"/>
<path d="M2703 5195 c-30 -21 -41 -96 -19 -130 34 -52 106 -20 106 48 0 35
-24 82 -45 91 -21 8 -17 8 -42 -9z"/>
<path d="M4736 5982 c-3 -6 -1 -14 6 -18 19 -12 862 -18 855 -7 -4 6 -162 12
-409 16 -222 3 -413 9 -424 12 -12 4 -25 2 -28 -3z"/>
<path d="M6284 5968 c-11 -13 -26 -32 -34 -43 -14 -18 -13 -18 15 2 45 31 72
63 53 63 -8 0 -23 -10 -34 -22z"/>
<path d="M3595 5971 c33 -5 222 -11 420 -14 234 -3 306 -3 205 3 -236 12 -694
20 -625 11z"/>
<path d="M4550 5934 c0 -8 5 -12 10 -9 6 3 10 10 10 16 0 5 -4 9 -10 9 -5 0
-10 -7 -10 -16z"/>
<path d="M4610 5940 c0 -6 7 -10 15 -10 8 0 15 2 15 4 0 2 -7 6 -15 10 -8 3
-15 1 -15 -4z"/>
<path d="M3543 5580 c0 -207 3 -332 7 -290 4 41 7 172 7 290 0 118 -3 249 -7
290 -4 42 -7 -83 -7 -290z"/>
<path d="M6290 5909 c0 -5 5 -7 10 -4 6 3 10 8 10 11 0 2 -4 4 -10 4 -5 0 -10
-5 -10 -11z"/>
<path d="M6326 5648 c-9 -123 -13 -681 -5 -665 10 16 25 737 16 737 -3 0 -8
-33 -11 -72z"/>
<path d="M3545 4980 c-3 -5 -1 -10 4 -10 6 0 11 5 11 10 0 6 -2 10 -4 10 -3 0
-8 -4 -11 -10z"/>
<path d="M6313 4840 c0 -30 2 -43 4 -27 2 15 2 39 0 55 -2 15 -4 2 -4 -28z"/>
<path d="M3554 4145 c0 -275 2 -459 5 -410 3 50 4 275 1 500 l-5 410 -1 -500z"/>
<path d="M6129 3850 c-60 -31 -69 -55 -69 -175 0 -63 4 -105 10 -105 6 0 10
42 10 106 0 103 1 106 29 135 42 41 90 40 127 -3 l27 -33 -6 -410 -5 -410 -28
-23 c-21 -18 -34 -22 -58 -18 -60 12 -66 30 -67 210 -1 178 -11 291 -23 265
-4 -9 -6 -116 -4 -239 3 -219 3 -222 27 -241 15 -13 39 -19 71 -19 42 0 52 4
79 35 l31 36 0 422 c0 385 -2 424 -18 443 -37 47 -77 54 -133 24z"/>
<path d="M5938 3534 c-233 -14 -261 -22 -266 -71 -4 -44 6 -46 261 -42 182 4
217 7 240 22 48 31 44 109 -6 106 -12 -1 -115 -7 -229 -15z m249 -31 c4 -10
-2 -23 -16 -35 -21 -16 -45 -18 -253 -18 -211 0 -229 1 -226 17 4 23 45 31
218 41 241 15 270 14 277 -5z"/>
<path d="M3542 3375 c0 -16 2 -22 5 -12 2 9 2 23 0 30 -3 6 -5 -1 -5 -18z"/>
<path d="M4160 3318 c0 -34 -7 -52 -32 -83 l-31 -40 41 40 c35 32 42 46 42 76
0 21 -4 41 -10 44 -6 4 -10 -11 -10 -37z"/>
<path d="M1687 3273 c-23 -54 -29 -123 -14 -157 12 -27 13 -24 15 43 1 39 9
88 17 107 17 42 18 44 7 44 -5 0 -16 -17 -25 -37z"/>
<path d="M4233 3280 c0 -17 -10 -44 -22 -61 -13 -17 -21 -33 -18 -35 9 -9 57
62 63 94 5 24 3 32 -8 32 -10 0 -15 -10 -15 -30z"/>
<path d="M1785 3256 c-38 -50 -50 -106 -27 -128 17 -17 17 -16 14 22 -3 30 3
51 23 86 33 56 27 68 -10 20z"/>
<path d="M3531 3070 c1 -69 4 -165 8 -215 7 -75 8 -58 9 110 1 115 -2 206 -8
215 -7 10 -9 -26 -9 -110z"/>
<path d="M6155 3110 c-8 -26 2 -90 15 -90 11 0 23 60 18 86 -5 26 -25 28 -33
4z"/>
<path d="M6317 1633 c-4 -7 -3 -97 4 -200 13 -225 17 -485 6 -568 -6 -51 -5
-56 6 -35 23 48 8 839 -16 803z"/>
<path d="M2996 1472 c-3 -5 1 -23 9 -38 8 -16 15 -51 16 -79 l1 -50 10 35 c5
19 8 52 5 74 -6 41 -30 75 -41 58z"/>
<path d="M1341 883 c-30 -29 -52 -93 -32 -93 6 0 11 9 11 21 0 12 16 37 35 56
19 19 35 37 35 39 0 12 -23 1 -49 -23z"/>
<path d="M3562 715 c-1 -66 -4 -138 -7 -160 l-5 -40 10 40 c6 21 9 93 7 160
l-3 120 -2 -120z"/>
<path d="M6310 546 c0 -8 5 -18 10 -21 6 -3 10 3 10 14 0 12 -4 21 -10 21 -5
0 -10 -6 -10 -14z"/>
<path d="M6517 487 c-47 -73 -69 -117 -60 -117 11 0 106 160 100 167 -3 2 -21
-20 -40 -50z"/>
<path d="M6536 411 c-45 -61 -47 -73 -3 -24 51 59 60 73 49 73 -6 0 -26 -22
-46 -49z"/>
<path d="M3410 406 c0 -19 5 -38 10 -41 6 -4 10 8 10 29 0 19 -4 38 -10 41 -6
4 -10 -8 -10 -29z"/>
<path d="M3350 393 c0 -28 3 -34 10 -23 13 20 13 60 0 60 -5 0 -10 -17 -10
-37z"/>
<path d="M2340 385 c-19 -19 -30 -35 -24 -35 19 1 86 70 67 70 -5 0 -24 -16
-43 -35z"/>
<path d="M2452 390 c-24 -32 -15 -42 10 -12 22 26 30 42 20 42 -4 0 -18 -13
-30 -30z"/>
<path d="M990 360 c0 -6 54 -10 143 -10 78 0 159 -4 180 -9 28 -7 37 -6 37 4
0 7 -10 15 -22 19 -40 10 -338 7 -338 -4z"/>
<path d="M6651 359 c-137 -12 -135 -20 3 -14 66 2 124 9 130 15 11 11 7 11
-133 -1z"/>
<path d="M3557 333 c-4 -3 -7 -10 -7 -14 0 -9 39 1 46 12 6 10 -29 12 -39 2z"/>
</g>
</svg>
