<?xml version="1.0" standalone="no"?>
<!DOCTYPE svg PUBLIC "-//W3C//DTD SVG 20010904//EN"
 "http://www.w3.org/TR/2001/REC-SVG-20010904/DTD/svg10.dtd">
<svg version="1.0" xmlns="http://www.w3.org/2000/svg"
 width="768.000000pt" height="588.000000pt" viewBox="0 0 768.000000 588.000000"
 preserveAspectRatio="xMidYMid meet">

<g transform="translate(0.000000,588.000000) scale(0.100000,-0.100000)"
fill="#000000" stroke="none">
<path d="M2576 5123 c9 -51 14 -54 14 -10 0 20 -5 39 -11 42 -7 5 -8 -5 -3
-32z"/>
<path d="M2344 5103 c11 -47 11 -47 14 -15 4 38 -3 62 -16 62 -5 0 -4 -21 2
-47z"/>
<path d="M2464 5108 c6 -23 12 -34 14 -24 5 23 -6 66 -17 66 -4 0 -3 -19 3
-42z"/>
<path d="M2135 5123 c-16 -3 -34 -9 -39 -14 -6 -5 -22 -9 -37 -9 -15 0 -34 -6
-41 -13 -28 -28 -58 -37 -98 -31 -34 6 -40 4 -40 -12 0 -10 -19 -48 -41 -86
-31 -50 -39 -71 -31 -81 6 -7 11 -31 10 -54 0 -23 3 -47 8 -55 5 -7 7 -37 5
-66 -3 -62 11 -87 39 -69 15 9 29 8 67 -5 80 -27 134 -30 163 -8 27 21 55 26
65 10 3 -5 14 -10 23 -10 18 0 72 48 72 64 0 6 -11 -2 -25 -17 -26 -27 -69
-41 -47 -14 8 10 5 13 -15 12 -14 0 -28 6 -30 13 -3 7 5 12 21 12 15 0 43 7
63 15 20 9 39 12 42 7 3 -4 23 11 43 33 l37 41 -24 37 -25 36 26 26 c21 21 25
32 20 58 -7 35 -32 67 -54 67 -9 0 -6 -7 11 -20 30 -24 42 -63 27 -90 -12 -23
-32 -27 -24 -5 11 27 -12 16 -25 -12 -10 -21 -14 -24 -21 -13 -6 10 -4 23 6
37 8 13 11 23 7 23 -5 0 -6 25 -5 56 2 32 -1 61 -7 67 -8 8 -11 -8 -11 -59 0
-73 -17 -126 -47 -143 -14 -8 -14 -13 6 -45 13 -20 27 -36 33 -36 5 0 0 16
-12 35 -18 29 -20 38 -10 50 18 21 29 18 36 -9 3 -14 11 -23 18 -20 16 6 51
-45 39 -56 -17 -17 -112 -60 -132 -60 -13 0 -25 9 -30 22 -7 20 -9 18 -15 -15
-4 -20 -14 -41 -24 -46 -9 -5 -17 -18 -17 -28 0 -16 -7 -18 -55 -15 -30 1 -74
10 -98 18 -39 15 -45 14 -67 0 -34 -22 -39 -7 -26 75 15 88 14 94 -4 79 -13
-11 -15 -8 -15 14 0 35 9 33 53 -12 27 -28 34 -41 27 -52 -5 -8 -10 -24 -10
-35 0 -17 2 -17 10 -5 8 13 10 13 10 1 0 -11 4 -9 15 5 8 10 15 23 15 27 0 4
-29 39 -65 77 -36 38 -65 72 -65 77 0 4 19 38 41 75 40 66 43 69 73 62 17 -3
39 -10 49 -16 20 -10 24 -50 3 -42 -11 4 -12 -5 -5 -45 9 -61 23 -89 56 -118
l26 -21 -51 -22 c-54 -23 -71 -52 -46 -78 11 -11 18 -12 27 -3 16 16 37 14 37
-4 0 -26 16 -16 33 20 22 47 22 62 -2 41 -17 -15 -19 -15 -25 -1 -4 10 2 19
18 26 13 6 29 22 35 35 6 13 15 24 21 24 6 0 3 -12 -7 -27 l-17 -28 26 24 c25
22 26 22 21 3 -4 -17 1 -22 23 -28 16 -4 37 -14 48 -23 15 -13 14 -9 -5 23
-19 33 -24 36 -29 21 -9 -26 -23 -1 -15 25 4 11 2 20 -4 20 -19 0 -12 17 9 23
17 4 20 14 20 60 0 43 -4 56 -17 62 -15 5 -16 4 -5 -6 6 -7 12 -34 12 -61 0
-46 -1 -47 -32 -52 -63 -10 -70 -6 -47 25 22 31 24 43 7 33 -10 -6 -10 -4 0 7
18 20 15 31 -8 24 -11 -4 -20 -3 -19 2 4 23 -4 23 -36 -1 -37 -28 -43 -24 -23
19 12 27 23 32 32 13 4 -7 4 1 2 18 -5 32 16 64 41 64 6 0 13 7 17 15 9 26 33
17 44 -17 l12 -33 -5 36 c-5 32 -2 37 17 43 37 9 66 7 70 -6 3 -7 7 -6 11 5 5
15 0 17 -41 16 -26 -1 -60 -4 -77 -6z m-95 -68 c-26 -27 -50 -33 -50 -12 0 14
34 35 59 36 10 1 7 -7 -9 -24z m4 -137 c-15 -29 -15 -33 0 -43 13 -10 14 -15
2 -30 -13 -18 -15 -17 -30 13 -17 33 -15 43 12 75 24 28 34 20 16 -15z m46
-72 c0 -2 -8 -10 -17 -17 -16 -13 -17 -12 -4 4 13 16 21 21 21 13z"/>
<path d="M2268 5068 c12 -12 25 -19 28 -15 4 4 -1 14 -12 22 -29 22 -41 18
-16 -7z"/>
<path d="M1902 4983 c-23 -33 -52 -89 -52 -100 0 -9 19 18 54 80 30 51 29 63
-2 20z"/>
<path d="M1916 4939 c-20 -39 -36 -74 -36 -77 1 -9 90 131 90 141 0 25 -23 -3
-54 -64z"/>
<path d="M5445 4960 c2 -14 5 -47 6 -75 l1 -50 9 42 c8 31 6 49 -6 75 -12 25
-14 27 -10 8z"/>
<path d="M5295 4935 c14 -21 25 -46 25 -56 0 -10 5 -21 12 -25 17 -11 2 56
-20 85 -30 40 -45 36 -17 -4z"/>
<path d="M5102 4940 c-18 -29 -15 -91 8 -127 19 -32 66 -63 93 -63 9 0 17 -14
21 -35 31 -161 201 -571 309 -742 78 -124 332 -249 656 -324 57 -13 105 -29
108 -35 2 -6 -23 -80 -55 -165 -33 -85 -78 -211 -102 -281 -23 -70 -49 -136
-58 -146 -9 -11 -102 -58 -207 -105 -104 -47 -241 -109 -304 -137 -106 -48
-114 -50 -131 -35 -41 37 -160 22 -160 -20 0 -20 6 -19 30 5 25 25 55 25 105
0 29 -15 47 -18 65 -12 14 5 68 5 120 0 52 -5 154 -7 225 -6 l130 3 3 33 c2
21 -1 32 -10 32 -7 0 -65 7 -128 14 -65 9 -121 11 -129 6 -18 -10 4 -14 143
-31 95 -11 106 -14 106 -31 0 -6 -69 -9 -209 -6 -115 1 -204 6 -198 10 7 4
129 60 273 124 143 64 270 124 282 133 15 11 41 70 81 186 80 229 143 395 151
395 8 0 50 -135 89 -290 29 -113 151 -728 151 -759 0 -9 -18 -31 -41 -48 -22
-17 -133 -114 -247 -215 -114 -101 -249 -219 -299 -262 -51 -42 -93 -81 -93
-86 0 -4 18 -52 39 -106 46 -118 90 -249 161 -479 76 -251 131 -419 140 -429
5 -5 6 -15 3 -22 -8 -21 3 -17 30 10 58 57 161 64 709 47 201 -6 229 -9 247
-25 23 -21 28 -10 9 17 -11 14 -41 19 -158 27 -80 5 -163 10 -186 10 l-41 0
-9 52 -9 53 -39 -3 -39 -4 6 129 c4 70 7 147 7 171 0 35 4 44 23 51 21 8 25
20 36 103 7 51 20 131 29 178 l17 85 75 0 c41 1 92 -3 113 -7 58 -13 89 11
137 104 75 142 81 186 90 593 8 378 16 452 70 660 55 211 109 341 172 413 52
60 28 142 -42 142 -25 0 -37 -10 -81 -72 -130 -184 -228 -474 -259 -768 -5
-52 -10 -159 -10 -238 l0 -143 -117 6 c-352 20 -598 -78 -733 -292 -30 -47
-64 -140 -75 -205 -5 -34 -11 -39 -77 -69 l-70 -33 4 -72 c3 -44 12 -83 21
-98 l17 -25 52 23 c121 54 240 83 353 87 l69 2 23 -174 c19 -144 27 -177 43
-191 19 -15 20 -29 20 -186 0 -149 -2 -171 -16 -174 -9 -2 -24 -23 -34 -48
l-18 -45 -119 -6 c-108 -5 -124 -8 -176 -36 -43 -24 -57 -28 -57 -16 0 13 -42
153 -182 598 -27 88 -72 216 -100 283 -28 68 -46 127 -42 131 5 4 38 32 74 61
36 30 139 120 230 200 91 80 177 151 192 159 15 7 63 48 107 90 l81 76 -55
285 c-92 483 -140 669 -235 905 -18 46 -27 81 -21 83 38 13 136 89 172 134
155 195 143 435 -31 608 -70 71 -164 126 -232 139 -44 8 -45 10 -32 46 5 14 1
12 -15 -7 -18 -23 -31 -28 -66 -28 -42 0 -44 1 -51 35 -9 49 -28 45 -21 -4 5
-37 3 -40 -25 -50 -27 -10 -33 -8 -63 25 -19 20 -39 33 -45 29 -8 -5 -1 -18
20 -40 l31 -32 -30 -13 c-29 -11 -33 -10 -65 18 -34 30 -73 48 -82 39 -2 -2
16 -21 41 -42 l46 -37 -28 -18 c-41 -24 -114 -109 -140 -161 -62 -125 -71
-314 -21 -422 72 -155 287 -269 473 -253 39 4 84 9 101 12 30 6 32 4 54 -50
12 -31 20 -59 17 -62 -3 -3 -80 15 -171 40 -268 74 -496 188 -553 278 -65 104
-224 451 -272 595 -53 156 -57 178 -45 225 17 72 -39 168 -100 168 -20 0 -35
-7 -44 -20z m87 -19 c31 -33 55 -102 46 -131 -14 -45 -95 -7 -121 56 -18 43
-18 69 2 88 23 23 43 20 73 -13z m1001 -282 c54 -13 129 -54 189 -106 142
-121 192 -340 114 -504 -50 -108 -136 -188 -239 -226 -37 -13 -79 -18 -164
-18 -122 1 -174 14 -263 68 l-39 23 66 33 c80 39 171 121 226 203 57 86 50
105 -9 22 -64 -92 -151 -170 -229 -207 -78 -36 -95 -30 -152 55 -48 72 -65
145 -57 253 9 121 34 179 81 188 l21 4 -22 8 -22 7 29 43 c62 90 135 130 245
135 15 0 17 2 7 9 -18 11 13 24 39 16 9 -3 20 -2 23 3 6 11 91 5 156 -9z
m1312 -981 c9 -7 18 -27 20 -44 2 -25 -6 -40 -33 -71 -51 -57 -92 -150 -143
-326 -82 -284 -88 -326 -96 -737 -7 -405 -14 -451 -83 -589 -47 -95 -61 -102
-176 -91 -367 36 -632 15 -824 -66 l-61 -26 -19 23 c-14 17 -17 36 -15 83 l3
61 55 22 55 22 10 -49 c13 -61 18 -67 50 -46 21 14 25 24 25 65 l0 48 53 7
c103 12 336 6 521 -15 104 -11 199 -18 211 -15 44 11 84 194 85 384 l0 92 34
0 c35 0 49 11 60 46 6 19 2 22 -45 28 l-52 7 6 197 c3 108 13 240 22 292 40
240 124 480 218 620 60 90 84 105 119 78z m-344 -1214 c44 -5 59 -10 55 -20
-4 -10 -54 -13 -241 -12 -140 1 -262 -3 -298 -9 -155 -29 -305 -147 -380 -298
-35 -71 -39 -88 -43 -169 -3 -88 -18 -126 -33 -88 -20 51 0 184 43 281 65 147
224 265 413 306 65 14 377 20 484 9z m-40 -124 c7 -157 -29 -373 -64 -387 -8
-3 -103 5 -212 17 -162 19 -231 22 -389 17 l-193 -5 6 27 c11 53 85 190 129
239 123 137 241 171 585 168 l135 -1 3 -75z m-292 -533 c3 -3 -5 -73 -20 -154
-14 -82 -26 -161 -26 -177 l0 -28 -67 7 c-38 4 -71 10 -75 14 -7 6 -33 172
-44 285 l-7 69 116 -5 c64 -2 119 -7 123 -11z m-98 -382 c2 -2 0 -77 -5 -167
-8 -154 -9 -163 -28 -163 -19 0 -20 8 -23 160 -1 87 0 165 3 173 4 11 39 9 53
-3z m72 -380 c0 -13 3 -30 6 -39 5 -14 -7 -16 -100 -16 l-106 0 12 28 c21 49
26 51 109 51 76 -1 79 -1 79 -24z"/>
<path d="M5848 4509 c-25 -14 -23 -33 1 -19 27 14 64 13 80 -2 10 -11 12 -9 9
7 -2 15 -12 21 -38 22 -19 2 -43 -2 -52 -8z"/>
<path d="M5819 4348 c-19 -15 -32 -60 -23 -82 17 -44 78 7 72 61 -3 31 -25 40
-49 21z"/>
<path d="M5661 4297 c-6 -8 -14 -28 -17 -45 -5 -24 -2 -33 10 -38 20 -8 56 22
56 47 0 45 -26 63 -49 36z"/>
<path d="M1950 4930 c-6 -12 -9 -24 -7 -27 3 -2 11 5 17 17 6 12 9 24 7 27 -3
2 -11 -5 -17 -17z"/>
<path d="M2380 4942 c0 -5 26 -12 58 -15 66 -7 141 -36 189 -73 18 -14 33 -21
33 -16 0 16 -70 64 -119 82 -53 20 -161 34 -161 22z"/>
<path d="M2099 4883 c-13 -16 -12 -17 4 -4 16 13 21 21 13 21 -2 0 -10 -8 -17
-17z"/>
<path d="M4715 4853 c-291 -19 -743 -109 -1016 -202 -103 -34 -311 -122 -305
-128 2 -2 48 15 102 38 353 150 838 255 1317 284 197 12 203 12 82 12 -71 0
-152 -2 -180 -4z"/>
<path d="M2445 4789 c149 -22 278 -128 364 -298 32 -65 53 -97 57 -88 9 24
-83 192 -139 253 -27 30 -69 66 -94 81 -59 34 -155 63 -206 62 -38 -1 -36 -2
18 -10z"/>
<path d="M2403 4718 l-12 -33 19 24 c21 24 26 41 12 41 -4 0 -13 -15 -19 -32z"/>
<path d="M5515 4665 c4 -44 13 -114 20 -155 11 -65 13 -69 14 -32 0 24 -4 87
-10 140 -14 122 -33 159 -24 47z"/>
<path d="M4973 4723 c9 -2 23 -2 30 0 6 3 -1 5 -18 5 -16 0 -22 -2 -12 -5z"/>
<path d="M2507 4708 c-15 -39 -16 -48 -6 -48 13 0 22 24 16 47 -4 17 -4 17
-10 1z"/>
<path d="M5376 4691 c-7 -11 114 -455 122 -447 4 4 -78 341 -101 415 -9 28
-17 40 -21 32z"/>
<path d="M4448 4643 c7 -3 16 -2 19 1 4 3 -2 6 -13 5 -11 0 -14 -3 -6 -6z"/>
<path d="M4388 4633 c6 -2 18 -2 25 0 6 3 1 5 -13 5 -14 0 -19 -2 -12 -5z"/>
<path d="M4285 4623 c-11 -2 -72 -16 -135 -30 -273 -59 -607 -150 -561 -152 8
-1 51 10 95 24 80 24 356 91 571 139 61 13 97 24 80 24 -16 0 -39 -2 -50 -5z"/>
<path d="M3069 4366 c-48 -35 -90 -70 -94 -77 -11 -17 7 -5 95 64 81 64 96 77
90 77 -3 0 -44 -29 -91 -64z"/>
<path d="M3375 4358 c-114 -40 -388 -168 -430 -202 -19 -16 -19 -16 6 -7 15 5
77 35 139 66 62 31 162 77 224 102 61 25 113 47 115 49 8 7 -24 3 -54 -8z"/>
<path d="M2609 4305 c-31 -8 -80 -25 -110 -38 -30 -14 -92 -37 -139 -52 -47
-15 -105 -38 -130 -50 -174 -87 -273 -400 -187 -588 48 -106 162 -199 291
-239 85 -26 225 -29 298 -5 l47 15 26 -66 27 -67 -26 -20 c-14 -11 -81 -42
-148 -69 -198 -79 -331 -137 -356 -153 -46 -29 -14 -23 64 13 64 29 313 130
374 151 36 13 -78 -58 -225 -140 -88 -49 -167 -96 -176 -103 -14 -13 -26 -4
-104 83 -48 54 -137 163 -198 243 -127 167 -184 230 -208 230 -24 0 -53 -44
-78 -118 -25 -73 -26 -91 -6 -99 31 -11 78 52 99 134 l11 42 133 -174 c144
-189 306 -375 327 -375 7 0 23 8 36 18 13 10 87 54 164 96 77 43 180 105 229
137 49 33 92 57 97 52 27 -28 109 -440 109 -549 0 -64 10 -124 21 -124 23 0
-3 281 -40 445 -25 114 -81 305 -109 371 l-21 51 49 32 c66 42 132 120 172
200 28 57 33 78 36 161 3 78 0 107 -18 160 -41 125 -127 222 -251 284 -37 19
-65 37 -62 40 4 3 53 6 110 6 62 0 103 4 103 10 0 13 -147 13 -225 -1 -34 -6
-75 -9 -91 -7 l-29 4 40 19 c22 10 85 26 140 36 91 16 95 17 45 17 -30 0 -80
-6 -111 -13z m23 -115 c73 -28 178 -109 222 -172 60 -88 78 -156 74 -273 -2
-82 -8 -110 -29 -155 -40 -85 -118 -163 -207 -207 -75 -37 -78 -38 -191 -38
-98 0 -125 4 -174 24 -63 25 -178 99 -184 118 -8 23 193 153 235 153 5 0 24 8
42 17 19 9 53 16 77 16 24 0 43 4 43 8 0 11 -142 79 -163 79 -17 0 -128 -105
-209 -199 l-47 -55 -19 25 c-104 133 -84 390 44 546 46 56 109 92 173 100 48
5 79 21 49 24 -7 1 5 5 27 10 62 12 177 2 237 -21z m-198 -480 l29 -18 -40
-12 c-35 -11 -44 -10 -67 5 -25 17 -26 19 -10 37 19 20 40 17 88 -12z m-101
-34 c9 -7 17 -16 17 -19 0 -12 -33 -16 -51 -6 -16 8 -18 13 -8 25 14 17 19 17
42 0z m-50 -43 c6 -6 -54 -53 -68 -53 -4 0 4 13 17 29 23 30 39 37 51 24z
m-567 -287 c-9 -29 -25 -64 -36 -77 l-19 -24 -1 32 c0 34 23 101 49 143 l16
24 3 -22 c2 -12 -4 -46 -12 -76z"/>
<path d="M2243 4079 c-24 -12 -43 -28 -43 -36 0 -12 3 -12 17 2 24 25 58 35
114 35 27 0 49 5 49 10 0 18 -93 11 -137 -11z"/>
<path d="M2263 3978 c-80 -57 -148 -116 -141 -124 9 -9 171 59 176 74 3 10 -6
9 -34 -3 -72 -31 -70 -31 -56 -13 7 9 40 34 73 55 54 35 71 53 51 53 -5 0 -36
-19 -69 -42z"/>
<path d="M876 4214 c-3 -9 -6 -84 -6 -169 l0 -153 -52 -22 c-97 -41 -88 17
-88 -582 l0 -528 -52 0 c-60 0 -72 -6 -82 -37 -5 -14 -17 -23 -34 -25 -24 -3
-27 -8 -30 -45 -2 -26 1 -43 7 -43 6 0 11 16 11 35 l0 35 725 0 725 0 0 -23
c0 -12 -7 -33 -16 -45 -14 -20 -14 -22 1 -22 18 0 35 39 35 81 l0 29 -405 0
-406 0 3 28 3 27 -202 3 -203 2 0 391 0 390 28 -3 27 -3 5 -225 5 -225 54 -3
c30 -2 65 -1 78 3 l22 5 1 570 0 570 -74 0 c-58 0 -75 -3 -80 -16z m134 -559
l0 -556 -57 3 -58 3 -3 553 -2 552 60 0 60 0 0 -555z m-140 61 c0 -85 -3 -157
-7 -159 -5 -3 -18 -1 -30 4 -22 8 -23 12 -23 145 0 119 2 139 18 150 39 30 42
21 42 -140z m-80 -421 l0 -535 -22 0 -23 0 3 522 c1 288 4 529 7 536 2 6 11
12 20 12 13 0 15 -61 15 -535z m406 -566 c3 -6 0 -15 -7 -20 -20 -12 -566 -12
-574 1 -3 6 -3 15 0 20 9 15 572 14 581 -1z"/>
<path d="M4906 4214 c-3 -9 -6 -84 -6 -169 l0 -152 -58 -25 c-31 -14 -63 -32
-70 -40 -9 -11 -12 -145 -14 -539 l-3 -524 -40 -3 c-67 -4 -83 -11 -87 -34 -2
-17 -12 -24 -33 -28 -27 -5 -30 -9 -33 -48 -2 -25 1 -42 7 -42 6 0 11 16 11
35 l0 35 725 0 725 0 0 -23 c0 -12 -7 -33 -16 -45 -12 -18 -13 -22 -1 -22 18
0 37 42 37 80 l0 30 -405 0 -405 0 0 30 0 30 -200 0 -200 0 0 391 0 390 28 -3
27 -3 5 -225 5 -225 54 -3 c30 -2 65 -1 78 3 l22 5 1 570 0 570 -74 0 c-58 0
-75 -3 -80 -16z m134 -559 l0 -556 -57 3 -58 3 -3 553 -2 552 60 0 60 0 0
-555z m-140 61 c0 -85 -3 -157 -7 -159 -5 -3 -18 -1 -30 4 -22 8 -23 12 -23
145 0 119 2 139 18 150 39 30 42 21 42 -140z m-80 -421 l0 -535 -22 0 -23 0 3
522 c1 288 4 529 7 536 2 6 11 12 20 12 13 0 15 -61 15 -535z m403 -569 c4 -9
-3 -16 -16 -20 -29 -8 -552 -8 -560 0 -3 3 -3 12 0 20 8 21 568 21 576 0z"/>
<path d="M5501 4214 c0 -11 3 -14 6 -6 3 7 2 16 -1 19 -3 4 -6 -2 -5 -13z"/>
<path d="M3155 4100 c26 -112 28 -133 16 -212 -14 -99 -8 -114 9 -23 15 82 9
190 -14 230 -16 27 -17 28 -11 5z"/>
<path d="M2970 4046 c0 -2 10 -25 22 -52 23 -53 30 -156 15 -249 -6 -42 -6
-47 5 -30 9 13 13 59 13 135 0 100 -3 120 -23 158 -19 36 -32 51 -32 38z"/>
<path d="M3395 3663 c-80 -86 -168 -263 -220 -443 -57 -198 -77 -329 -82 -553
l-6 -197 -116 6 c-226 13 -418 -27 -553 -114 -129 -85 -210 -201 -244 -350
l-16 -71 -69 -32 -69 -32 0 -64 c0 -64 20 -123 41 -123 6 0 53 16 105 35 113
42 205 63 299 66 l70 3 3 -30 c1 -16 12 -94 23 -174 16 -115 24 -148 39 -162
18 -15 20 -30 20 -186 0 -149 -2 -171 -16 -174 -9 -2 -24 -23 -34 -48 l-18
-45 -115 -6 c-63 -3 -130 -12 -148 -19 -48 -19 -89 -49 -89 -65 0 -9 8 -6 24
10 57 56 153 63 705 46 213 -6 234 -8 247 -26 17 -23 29 -14 15 13 -11 21 -43
26 -268 38 l-123 7 -6 48 -7 49 -40 0 -40 0 6 107 c4 58 7 135 7 170 0 57 2
64 23 72 20 8 24 21 40 132 10 68 23 149 30 179 l13 55 79 -1 c44 0 97 -4 117
-7 32 -7 41 -4 72 24 43 37 89 130 117 236 19 69 22 121 29 443 8 381 13 428
64 626 60 235 113 367 178 442 72 83 -12 194 -87 115z m76 -3 c31 -17 25 -75
-11 -117 -44 -49 -82 -131 -128 -273 -94 -289 -112 -418 -112 -800 0 -141 -5
-293 -10 -338 -17 -133 -82 -294 -133 -326 -18 -11 -42 -12 -122 -5 -382 34
-621 14 -821 -68 -56 -23 -67 -25 -75 -13 -17 28 -28 81 -22 116 6 36 17 46
83 69 l39 14 7 -50 c8 -58 16 -66 49 -45 21 14 25 24 25 65 l0 48 46 7 c92 12
336 6 521 -14 103 -11 200 -18 214 -15 22 5 30 17 48 72 27 83 40 180 41 306
l0 97 34 0 c35 0 49 11 60 46 6 19 2 22 -44 28 l-50 7 0 102 c0 423 99 811
264 1035 46 63 61 71 97 52z m-342 -1216 c38 -4 60 -11 58 -18 -3 -8 -78 -11
-243 -12 -131 0 -267 -6 -300 -12 -154 -27 -305 -145 -380 -296 -35 -72 -39
-89 -42 -172 -3 -67 -8 -94 -18 -98 -19 -7 -28 51 -20 126 28 242 211 425 477
477 53 11 381 14 468 5z m-42 -192 c-5 -147 -27 -274 -51 -307 -12 -17 -22
-17 -207 3 -197 22 -449 28 -542 13 -26 -4 -50 -4 -53 0 -2 4 4 34 15 66 54
160 164 277 313 335 59 23 171 33 392 36 l139 2 -6 -148z m-292 -464 c4 -4 -2
-58 -14 -121 -11 -62 -24 -142 -27 -176 l-7 -62 -66 6 c-36 4 -69 10 -73 14
-7 6 -48 284 -48 327 l0 26 114 -3 c63 -2 118 -7 121 -11z m-96 -384 c2 -2 -1
-76 -5 -166 -8 -153 -10 -163 -29 -163 -19 0 -20 8 -23 160 -1 87 0 165 3 173
4 12 39 9 54 -4z m65 -366 c3 -7 7 -25 10 -40 l6 -28 -101 0 -101 0 7 27 c4
16 11 34 17 40 14 18 157 18 162 1z"/>
<path d="M2856 2238 c-3 -79 -5 -150 -5 -158 1 -8 1 -30 1 -48 l-2 -32 -288 6
c-195 5 -291 4 -295 -3 -5 -7 89 -13 284 -18 252 -6 293 -5 306 8 12 11 16 54
20 201 4 124 3 186 -4 186 -7 0 -13 -56 -17 -142z"/>
<path d="M2933 3379 c8 -26 24 -133 30 -189 2 -19 4 1 5 45 2 83 -11 149 -30
161 -8 5 -9 0 -5 -17z"/>
<path d="M2810 3321 c0 -17 63 -251 67 -248 4 4 -23 153 -37 206 -10 38 -30
65 -30 42z"/>
<path d="M1500 3124 c23 -58 -4 -169 -40 -169 -24 0 -23 29 3 104 28 80 20 96
-11 24 -42 -101 -40 -156 6 -151 36 4 60 55 64 131 2 33 7 55 13 53 210 -91
264 -110 402 -141 118 -27 164 -32 147 -15 -6 6 -60 22 -120 35 -133 30 -240
65 -357 116 -106 47 -120 49 -107 13z"/>
<path d="M1355 2828 c-13 -42 -24 -93 -19 -97 8 -9 340 -22 469 -19 l120 3 3
33 c2 21 -1 32 -10 32 -7 0 -118 14 -247 30 -259 33 -310 36 -316 18z m300
-38 c250 -33 255 -34 255 -50 0 -12 -103 -13 -371 -3 l-186 6 10 39 c12 47 -4
47 292 8z"/>
<path d="M5388 2834 c-5 -4 -8 -19 -8 -33 l0 -26 18 23 c17 22 22 23 105 16
62 -5 87 -4 87 5 0 6 -11 11 -23 11 -13 0 -57 3 -98 6 -41 3 -77 3 -81 -2z"/>
<path d="M560 2600 c0 -6 73 -10 200 -10 l200 0 0 -870 0 -870 -201 0 -201 0
-29 -31 c-16 -17 -29 -40 -29 -50 0 -18 -10 -19 -172 -21 -164 -1 -168 -2 -73
-8 162 -12 7253 -12 7260 0 4 7 -59 10 -180 10 l-187 0 31 35 c36 41 39 72 11
103 -59 63 -178 -9 -166 -101 l4 -37 -341 0 -341 0 27 28 c50 53 29 126 -37
126 -62 0 -121 -78 -98 -129 11 -24 11 -25 -30 -25 l-41 0 21 23 c29 31 28 46
0 19 -31 -28 -78 -46 -91 -33 -14 14 3 33 64 72 54 34 60 51 10 25 -43 -23
-101 -75 -101 -92 0 -9 -12 -14 -35 -14 -27 0 -35 4 -35 18 0 9 -9 32 -20 49
l-20 33 -185 0 -185 0 0 548 c0 301 -3 692 -7 870 l-6 322 201 0 c128 0 202 4
202 10 0 7 -238 10 -694 10 -453 0 -697 -3 -701 -10 -4 -7 65 -10 199 -10
l206 0 -2 -867 -3 -868 -201 -5 c-220 -5 -225 -7 -251 -68 l-13 -32 -701 0
-701 0 31 35 c36 41 40 76 11 105 -60 60 -181 -17 -167 -107 l6 -33 -341 0
-342 0 27 28 c50 53 29 126 -37 126 -62 0 -121 -78 -98 -129 l12 -25 -125 0
c-112 0 -125 2 -125 18 0 9 -9 32 -20 50 l-20 32 -185 0 -185 0 0 253 c0 140
-3 531 -7 870 l-6 617 201 0 c128 0 202 4 202 10 0 7 -238 10 -695 10 -457 0
-695 -3 -695 -10z m980 -692 c0 -376 -3 -767 -7 -870 l-6 -188 -274 0 -273 0
0 870 0 870 280 0 280 0 0 -682z m4030 -75 c0 -417 -3 -809 -7 -870 l-6 -113
-274 0 -273 0 0 870 0 870 280 0 280 0 0 -757z m-2434 -956 c35 -30 27 -69
-19 -97 -39 -24 -65 -25 -89 -3 -43 38 2 119 69 122 7 1 24 -9 39 -22z m4029
-2 c14 -13 25 -30 25 -37 0 -41 -69 -85 -115 -74 -51 13 -41 95 15 123 36 18
48 16 75 -12z m-4831 -1 c55 -55 -38 -150 -96 -97 -25 22 -23 46 8 82 29 34
63 40 88 15z m4030 0 c55 -55 -38 -150 -96 -97 -26 23 -22 50 11 84 33 32 62
37 85 13z m-4442 -61 c8 -10 18 -28 21 -40 l5 -23 -714 0 c-663 0 -714 1 -714
17 0 9 10 27 22 40 l21 23 672 0 c627 0 673 -1 687 -17z m4030 0 c8 -10 18
-28 21 -40 l5 -23 -714 0 c-683 0 -714 1 -714 18 0 10 9 28 20 40 l21 22 673
0 c628 0 674 -1 688 -17z"/>
<path d="M6184 2133 c-194 -210 -246 -272 -239 -283 5 -8 13 -3 24 14 9 14 73
87 142 163 119 132 187 213 177 213 -3 0 -49 -48 -104 -107z"/>
<path d="M1953 1999 c-7 -7 -10 -24 -8 -38 3 -14 28 -170 56 -346 78 -495 119
-748 126 -772 5 -22 2 -23 -48 -23 -30 0 -64 -3 -76 -6 -45 -12 -22 -20 50
-16 52 2 68 0 57 -7 -8 -6 -36 -11 -62 -11 -27 0 -48 -4 -48 -10 0 -16 82 -11
120 8 25 12 34 23 33 37 -14 111 -175 1094 -190 1153 -5 22 -4 22 91 22 57 0
96 4 96 10 0 14 -183 13 -197 -1z"/>
<path d="M1931 1375 c-1 -364 2 -516 10 -508 14 14 15 956 1 998 -7 21 -11
-121 -11 -490z"/>
<path d="M5845 1553 c-38 -120 -96 -312 -129 -428 -61 -208 -61 -210 -91 -215
-32 -6 -27 -13 16 -23 25 -6 27 -4 44 56 34 125 165 565 204 687 22 68 37 128
32 133 -4 4 -38 -91 -76 -210z"/>
</g>
</svg>
