<?xml version="1.0" standalone="no"?>
<!DOCTYPE svg PUBLIC "-//W3C//DTD SVG 20010904//EN"
 "http://www.w3.org/TR/2001/REC-SVG-20010904/DTD/svg10.dtd">
<svg version="1.0" xmlns="http://www.w3.org/2000/svg"
 width="450.000000pt" height="450.000000pt" viewBox="0 0 450.000000 450.000000"
 preserveAspectRatio="xMidYMid meet">

<g transform="translate(0.000000,450.000000) scale(0.100000,-0.100000)"
fill="#000000" stroke="none">
<path d="M1134 3715 c-87 -19 -159 -59 -225 -124 -65 -65 -103 -133 -124 -223
-22 -95 -22 -2142 0 -2237 41 -173 167 -301 342 -346 86 -22 2160 -22 2246 0
172 45 297 169 342 340 13 51 15 172 15 860 -1 907 -11 1319 -35 1409 -45 171
-164 286 -334 322 -95 20 -2134 19 -2227 -1z m1534 -30 c140 -6 318 -27 329
-39 16 -15 -78 -36 -227 -50 -261 -25 -413 -29 -580 -17 -85 6 -218 11 -295
12 -125 1 -218 8 -310 24 -16 2 -57 9 -90 15 -33 5 -62 10 -64 10 -2 0 -2 2 1
5 11 11 250 36 403 42 88 3 161 7 163 8 5 4 529 -4 670 -10z m-915 -440 c58
-15 160 -62 207 -95 24 -17 29 -17 90 -2 90 22 379 22 469 0 64 -16 64 -16
105 9 109 69 252 117 281 93 33 -27 50 -219 26 -283 -10 -25 -7 -33 19 -65 16
-20 42 -64 57 -97 24 -52 28 -76 31 -172 8 -233 -67 -406 -217 -503 -55 -35
-169 -76 -238 -85 -76 -10 -77 -11 -53 -46 42 -59 50 -109 50 -329 0 -185 2
-209 18 -222 9 -9 24 -18 32 -20 8 -3 -28 -15 -80 -27 -119 -29 -298 -38 -411
-22 -106 16 -218 43 -199 49 44 14 50 31 50 146 l0 111 -95 -3 c-166 -7 -245
39 -310 176 -28 60 -52 92 -107 144 -81 77 -82 92 -2 86 69 -6 113 -37 179
-125 65 -87 117 -118 200 -117 33 0 77 6 97 13 32 11 39 19 49 54 6 23 21 59
35 79 l24 38 -22 4 c-112 22 -183 43 -237 69 -185 90 -279 273 -269 527 5 120
28 192 83 265 30 39 33 47 24 77 -19 69 -5 241 23 275 13 16 21 16 91 -2z
m-681 -366 c7 -33 10 -69 23 -277 11 -157 7 -962 -5 -1021 -5 -29 -10 -55 -10
-56 0 -8 -41 -12 -45 -4 -35 56 -34 1136 1 1362 7 46 26 44 36 -4z m2387 -136
c24 -90 32 -241 33 -583 1 -297 -2 -384 -15 -470 -18 -111 -34 -170 -46 -170
-29 0 -31 30 -31 520 0 440 9 705 26 731 11 18 24 8 33 -28z"/>
</g>
</svg>
