<?xml version="1.0" standalone="no"?>
<!DOCTYPE svg PUBLIC "-//W3C//DTD SVG 20010904//EN"
 "http://www.w3.org/TR/2001/REC-SVG-20010904/DTD/svg10.dtd">
<svg version="1.0" xmlns="http://www.w3.org/2000/svg"
 width="768.000000pt" height="770.000000pt" viewBox="0 0 768.000000 770.000000"
 preserveAspectRatio="xMidYMid meet">

<g transform="translate(0.000000,770.000000) scale(0.100000,-0.100000)"
fill="#000000" stroke="none">
<path d="M3480 7241 c-47 -10 -136 -50 -151 -67 -17 -20 -1 -18 82 12 64 23
83 26 168 22 53 -3 110 -11 126 -18 l30 -12 -55 -19 c-44 -14 -73 -17 -151
-12 -86 5 -103 3 -178 -22 -82 -27 -201 -98 -209 -124 -3 -8 31 5 79 32 46 25
109 52 139 61 74 21 157 29 165 16 3 -5 -2 -10 -11 -10 -10 0 -50 -16 -89 -36
-156 -77 -292 -263 -357 -490 -19 -68 -23 -102 -23 -239 1 -149 2 -165 28
-234 66 -182 196 -313 409 -416 116 -56 213 -81 351 -90 l108 -7 -7 -142 c-4
-82 -11 -146 -18 -152 -14 -15 -365 -228 -636 -387 -378 -221 -408 -242 -388
-263 6 -5 615 58 808 84 45 6 45 6 -27 14 -58 7 -126 2 -340 -22 -376 -43
-382 -44 -358 -29 11 7 151 90 310 184 160 95 366 218 459 274 92 56 171 100
174 96 5 -5 -11 -258 -25 -387 -5 -49 -3 -58 10 -58 20 0 23 19 42 244 8 98
16 180 18 182 1 2 136 -92 298 -209 162 -117 322 -230 357 -252 60 -39 80 -61
45 -51 -10 2 -52 7 -93 11 -41 3 -92 8 -112 11 -41 6 -49 -4 -18 -23 28 -18
320 -47 333 -34 16 16 -3 31 -193 163 -199 138 -229 158 -442 310 -192 137
-175 106 -170 314 l3 130 77 18 c95 22 237 88 319 149 70 52 164 165 217 260
156 280 117 619 -103 885 -80 97 -282 224 -409 257 -31 9 -106 18 -167 22 -62
3 -119 12 -130 19 -55 36 -204 53 -295 35z m550 -113 c61 -15 177 -68 246
-114 172 -114 284 -273 335 -473 30 -119 24 -295 -13 -399 -39 -109 -102 -208
-187 -293 -62 -62 -94 -85 -171 -122 -142 -69 -200 -82 -365 -82 -171 1 -228
15 -380 90 -299 150 -426 352 -411 655 9 194 69 367 172 496 96 120 189 177
323 196 105 14 108 16 85 32 -20 15 -16 16 106 30 52 6 208 -4 260 -16z"/>
<path d="M3891 6831 c-18 -12 -9 -16 94 -40 49 -12 103 -28 119 -36 39 -20 59
-4 31 25 -33 32 -215 70 -244 51z"/>
<path d="M3574 6705 c-50 -51 -68 -85 -45 -85 10 0 121 123 121 134 0 18 -27
0 -76 -49z"/>
<path d="M3914 6689 c-40 -44 -11 -189 37 -189 32 0 55 17 69 50 16 39 7 84
-26 127 -29 38 -53 42 -80 12z"/>
<path d="M3656 6654 c-12 -11 -16 -36 -16 -90 0 -66 3 -78 25 -99 13 -14 29
-25 35 -25 6 0 22 11 35 25 41 40 28 132 -24 184 -25 25 -35 26 -55 5z"/>
<path d="M4310 6259 c-145 -113 -281 -172 -474 -205 -97 -16 -233 -15 -365 2
-56 8 -53 -15 4 -34 163 -54 514 1 707 112 93 53 208 142 208 162 0 22 -11 17
-80 -37z"/>
<path d="M3416 4785 c-64 -26 -100 -53 -56 -41 14 4 63 12 110 18 71 9 133 8
375 -11 160 -12 314 -25 343 -28 46 -5 52 -4 46 11 -3 9 -16 18 -28 21 -26 7
-645 55 -695 55 -20 0 -63 -11 -95 -25z"/>
<path d="M4170 4796 c-73 -9 -74 -10 -35 -17 22 -4 54 -8 70 -9 28 0 36 -10
103 -123 101 -168 138 -207 194 -207 81 0 43 130 -73 248 -108 111 -139 123
-259 108z m212 -108 c67 -67 115 -137 133 -195 9 -33 -24 -30 -57 5 -24 24
-168 246 -168 257 0 17 28 -4 92 -67z"/>
<path d="M3875 4678 c-3 -24 -14 -122 -26 -218 -52 -456 -163 -1097 -193
-1128 -4 -3 -39 -1 -78 6 -79 12 -88 10 -88 -19 0 -16 4 -19 21 -14 12 4 45 4
75 0 43 -5 54 -10 54 -24 0 -14 -11 -20 -46 -25 -68 -9 -1667 -5 -1619 4 22 4
93 11 158 15 236 14 168 24 -128 18 -297 -5 -702 10 -736 27 -8 5 -20 24 -26
42 -28 84 -255 723 -286 806 -19 50 -32 92 -28 93 3 0 245 3 536 6 292 3 559
6 594 7 l64 1 18 -60 c19 -66 178 -498 254 -690 56 -142 85 -201 115 -235 27
-31 27 -31 -50 165 -33 83 -98 254 -145 380 -102 272 -138 369 -156 412 -11
28 -11 35 2 48 13 13 23 -4 86 -157 39 -95 92 -231 118 -303 93 -263 138 -382
169 -447 23 -49 29 -71 22 -79 -8 -9 35 -10 169 -5 290 10 386 18 382 30 -4
13 -60 13 -323 2 l-190 -9 -58 149 c-32 82 -77 205 -101 274 -69 201 -102 286
-171 441 -35 80 -64 151 -64 156 0 17 -194 23 -410 13 -113 -5 -357 -10 -542
-10 -337 0 -337 0 -352 -22 -24 -34 -20 -67 28 -200 24 -68 82 -231 129 -363
110 -310 134 -369 173 -431 l32 -52 159 -7 c353 -16 257 -23 -337 -23 l-625 0
1 -74 c0 -48 6 -84 17 -105 l18 -33 101 0 101 0 -6 -67 c-4 -38 -7 -611 -7
-1275 l0 -1208 -45 0 -45 0 0 1253 c0 1154 -6 1460 -23 1165 -8 -139 -7 -1953
2 -2243 l6 -210 50 -3 c32 -2 57 2 70 12 20 14 20 27 23 1295 l2 1281 1173 0
c1147 0 1685 7 1547 21 -36 4 -711 7 -1501 8 l-1437 1 -5 23 c-3 12 -9 46 -13
75 l-7 52 1565 0 c861 0 1567 -3 1571 -6 7 -8 -224 -472 -343 -689 -49 -88
-123 -230 -164 -315 l-76 -156 -10 -174 c-16 -269 -40 -610 -47 -660 -6 -44
-6 -45 14 -27 14 12 22 36 27 80 10 101 25 347 36 569 l9 206 101 202 c55 111
122 240 149 288 26 48 112 214 191 370 80 155 147 282 150 282 3 0 14 -46 24
-102 10 -57 35 -179 56 -273 37 -161 54 -256 115 -630 15 -88 29 -173 32 -190
4 -27 -1 -34 -60 -77 -35 -26 -102 -82 -148 -125 -46 -43 -174 -159 -284 -258
-338 -306 -610 -556 -613 -566 -8 -20 23 -7 67 28 25 21 111 99 191 174 133
125 239 222 500 458 52 47 124 113 160 146 36 34 100 87 143 119 74 56 77 60
77 99 0 84 -91 620 -141 832 -42 178 -79 356 -79 381 0 12 241 14 1751 14
l1752 0 -6 -66 c-4 -37 -9 -69 -11 -71 -3 -3 -776 -8 -1720 -11 -1432 -4
-1713 -7 -1709 -19 4 -11 271 -13 1598 -13 l1593 0 -9 -34 c-15 -55 -7 -2502
8 -2517 16 -16 132 3 145 23 9 16 11 1830 1 2217 -3 150 -9 267 -13 259 -4 -7
-10 -562 -13 -1232 -5 -988 -8 -1221 -19 -1227 -7 -5 -28 -9 -45 -9 l-33 0 0
1260 0 1260 120 0 119 0 6 38 c3 20 10 61 15 91 6 30 10 60 10 68 0 11 -268
13 -1562 14 -1605 2 -1978 6 -1978 24 0 6 120 12 329 15 181 3 332 8 335 11
11 10 -169 19 -403 19 -124 0 -232 4 -240 9 -11 7 -10 24 8 97 62 267 164 925
187 1207 6 75 5 87 -9 87 -11 0 -18 -13 -22 -42z m-1780 -338 c3 -5 20 -10 38
-10 20 0 28 -3 21 -10 -22 -22 -1016 -40 -1179 -21 l-60 7 65 7 c36 3 263 9
505 13 370 5 497 10 592 22 6 1 15 -2 18 -8z"/>
<path d="M3369 4634 c-43 -63 -107 -124 -130 -124 -31 0 -28 46 7 102 17 27
20 38 11 38 -30 0 -77 -83 -77 -134 0 -34 30 -49 67 -35 65 24 208 199 163
199 -5 0 -23 -21 -41 -46z"/>
<path d="M5117 4323 c-3 -5 -21 -89 -42 -188 -20 -99 -44 -218 -54 -265 l-18
-85 -40 -3 c-24 -2 -44 2 -50 10 -6 7 -16 81 -22 163 -6 83 -14 162 -17 178
-7 34 -24 36 -24 2 0 -18 -5 -25 -19 -25 -11 0 -26 -3 -34 -6 -11 -4 -17 7
-24 43 -6 31 -14 47 -22 45 -7 -1 -19 2 -26 8 -7 6 -15 7 -18 3 -11 -18 -11
-61 0 -74 6 -8 19 -86 29 -173 13 -129 14 -162 4 -181 -10 -18 -12 -75 -8
-230 4 -181 7 -208 23 -223 17 -16 17 -8 11 206 l-7 224 123 -3 c183 -4 166
21 149 -211 -7 -109 -10 -206 -6 -215 6 -17 7 -17 19 -1 8 11 16 66 19 135 4
65 10 164 13 221 6 93 5 102 -11 102 -11 0 -15 5 -11 15 21 55 61 199 84 304
32 144 54 173 45 59 -4 -49 -2 -70 5 -63 12 12 43 146 36 157 -3 4 -17 8 -31
8 -23 0 -25 3 -20 29 5 24 2 30 -16 35 -29 8 -35 7 -40 -1z m13 -128 c-7 -41
-15 -73 -17 -71 -3 2 1 39 8 80 6 42 14 74 17 71 3 -2 -1 -39 -8 -80z m-23
-117 c-3 -7 -5 -2 -5 12 0 14 2 19 5 13 2 -7 2 -19 0 -25z m-243 -168 c5 -87
4 -120 -3 -110 -6 8 -11 35 -11 60 -1 25 -7 79 -15 120 -10 55 -10 79 -2 89
17 20 23 -13 31 -159z m-45 -4 c10 -58 16 -108 13 -111 -15 -15 -21 2 -27 73
-3 42 -9 95 -12 117 -3 22 -2 37 1 34 4 -4 15 -54 25 -113z"/>
<path d="M4977 4293 c-4 -3 -7 -34 -7 -69 0 -34 -9 -115 -20 -179 -26 -152
-26 -225 1 -225 13 0 32 82 21 89 -6 4 0 43 14 99 37 145 51 257 35 276 -14
17 -33 21 -44 9z"/>
<path d="M1440 3841 c0 -11 8 -36 17 -56 13 -27 23 -35 43 -35 14 0 96 -5 183
-11 87 -5 168 -7 179 -3 44 14 -10 23 -185 33 -98 6 -182 13 -187 16 -6 3 -10
14 -10 23 0 15 16 17 177 14 166 -4 177 -5 194 -25 10 -12 18 -16 19 -9 0 6
-8 20 -19 31 -15 15 -41 19 -162 25 -79 4 -168 9 -196 12 -49 6 -53 5 -53 -15z"/>
<path d="M5890 3777 c0 -9 5 -19 11 -23 6 -3 18 -22 26 -41 12 -31 12 -38 -2
-59 -9 -14 -28 -29 -43 -35 -15 -6 -37 -20 -49 -31 -35 -32 -48 -123 -22 -154
7 -9 12 -35 10 -60 -2 -52 11 -58 24 -11 9 28 16 33 56 41 26 5 144 5 285 -1
l239 -10 -252 -1 c-146 -1 -254 -6 -258 -11 -3 -6 9 -13 27 -16 25 -4 611 -2
998 4 19 0 44 0 54 -2 25 -3 32 19 9 27 -25 10 -586 36 -892 41 -167 3 -259 9
-267 16 -18 15 -18 90 0 115 14 18 32 19 423 22 455 4 600 -2 583 -23 -24 -29
-30 -78 -14 -103 21 -31 39 -16 25 21 -13 35 0 71 34 93 20 13 29 14 38 5 13
-13 67 -15 67 -1 0 5 -21 15 -46 23 -40 11 -44 15 -30 26 17 14 22 77 7 99
-12 20 -381 46 -808 58 -209 6 -233 5 -233 -9z m480 -28 c91 -5 242 -13 335
-16 94 -3 177 -10 185 -15 9 -6 -42 -7 -140 -4 -401 15 -780 19 -780 9 0 -13
170 -21 624 -31 198 -4 321 -11 323 -17 1 -5 -7 -22 -20 -36 l-22 -27 -472 5
-472 6 16 23 c15 23 14 70 -1 104 -6 14 10 15 126 13 73 -2 207 -8 298 -14z"/>
<path d="M6026 3651 c-3 -4 23 -11 57 -14 89 -8 747 5 753 15 3 4 -177 8 -400
8 -223 0 -407 -4 -410 -9z"/>
<path d="M5907 3563 c-10 -15 -12 -81 -4 -90 13 -13 18 5 15 53 -2 28 -6 44
-11 37z"/>
<path d="M5975 3541 c-50 -20 297 -26 680 -13 105 4 130 7 100 13 -52 10 -754
10 -780 0z"/>
<path d="M6040 3482 c0 -13 73 -20 280 -28 182 -7 346 2 283 16 -53 12 -563
23 -563 12z"/>
<path d="M5434 3466 c-8 -22 -1 -59 14 -64 7 -2 12 6 12 23 l0 27 123 -3 c67
-2 128 0 135 4 30 20 -8 27 -139 27 -112 0 -141 -3 -145 -14z"/>
<path d="M5697 3410 c3 -11 9 -20 14 -20 5 0 9 9 9 20 0 11 -6 20 -14 20 -9 0
-12 -7 -9 -20z"/>
<path d="M645 3356 c-17 -23 -20 -76 -5 -76 6 0 15 11 19 24 12 29 36 36 129
36 79 0 91 15 19 24 -122 15 -147 14 -162 -8z"/>
<path d="M5254 3361 c-7 -7 -5 -47 3 -54 3 -4 14 0 24 9 15 13 47 17 156 21
156 5 187 9 177 24 -6 10 -350 10 -360 0z"/>
<path d="M893 3334 c-18 -18 -28 -22 -33 -14 -4 7 -13 9 -19 6 -13 -9 -15 -53
-2 -61 9 -5 17 2 49 40 15 18 65 32 69 19 12 -33 22 -38 56 -27 29 9 38 8 51
-5 14 -14 16 -14 22 1 3 9 3 24 0 33 -6 16 -18 16 -73 -1 -19 -6 -23 -4 -23
14 0 32 -63 29 -97 -5z"/>
<path d="M3150 3336 c-13 -16 -7 -46 9 -46 12 0 22 43 12 53 -4 4 -14 1 -21
-7z"/>
<path d="M5664 3326 c-22 -17 -11 -35 13 -20 19 12 29 34 16 34 -5 0 -18 -6
-29 -14z"/>
<path d="M5615 3319 c-4 -6 -5 -13 -2 -16 7 -7 27 6 27 18 0 12 -17 12 -25 -2z"/>
<path d="M5935 3322 c16 -17 189 -31 480 -38 271 -7 548 2 510 16 -11 4 -207
10 -435 14 -228 3 -449 9 -490 12 -52 4 -72 3 -65 -4z"/>
<path d="M4440 3300 c0 -5 5 -10 10 -10 6 0 10 5 10 10 0 6 -4 10 -10 10 -5 0
-10 -4 -10 -10z"/>
<path d="M3607 3063 c-13 -12 -7 -23 13 -23 11 0 20 7 20 15 0 15 -21 21 -33
8z"/>
<path d="M765 2631 c-25 -6 -20 -8 34 -14 79 -9 2381 -9 2444 -1 26 4 44 11
41 15 -6 10 -2474 10 -2519 0z"/>
<path d="M3397 2634 c-18 -19 19 -24 169 -24 128 0 165 3 162 13 -4 9 -47 13
-164 15 -88 1 -163 -1 -167 -4z"/>
<path d="M3830 2631 c0 -4 28 -11 61 -15 85 -8 2817 -8 2915 1 l79 7 -50 7
c-73 10 -3005 11 -3005 0z"/>
<path d="M2971 1087 c-10 -12 -71 -389 -71 -439 0 -5 -3 -8 -8 -8 -4 0 -20 39
-37 86 -36 108 -114 265 -138 279 -15 8 -22 5 -38 -14 -44 -54 -11 -236 71
-390 72 -134 143 -143 169 -21 18 84 72 480 69 502 -3 19 -4 20 -17 5z m-221
-200 c39 -83 102 -260 115 -325 6 -31 6 -33 -13 -23 -41 22 -118 167 -147 279
-17 69 -20 152 -4 152 6 0 28 -38 49 -83z"/>
<path d="M2596 819 c-14 -11 -26 -27 -26 -35 0 -21 37 -91 78 -147 31 -43 77
-75 89 -63 3 2 -18 34 -46 71 -76 98 -84 118 -40 95 30 -17 25 16 -7 36 -17
12 -22 20 -15 27 13 13 14 37 2 37 -4 0 -20 -9 -35 -21z"/>
</g>
</svg>
