<?xml version="1.0" standalone="no"?>
<!DOCTYPE svg PUBLIC "-//W3C//DTD SVG 20010904//EN"
 "http://www.w3.org/TR/2001/REC-SVG-20010904/DTD/svg10.dtd">
<svg version="1.0" xmlns="http://www.w3.org/2000/svg"
 width="768.000000pt" height="464.000000pt" viewBox="0 0 768.000000 464.000000"
 preserveAspectRatio="xMidYMid meet">

<g transform="translate(0.000000,464.000000) scale(0.100000,-0.100000)"
fill="#000000" stroke="none">
<path d="M1960 4181 c-96 -7 866 -19 1935 -24 391 -2 667 -1 615 4 -213 17
-2335 34 -2550 20z"/>
<path d="M1331 4169 c-88 -8 -110 -13 -100 -23 2 -2 65 0 139 4 74 5 199 9
277 10 83 0 144 4 148 10 7 12 -324 11 -464 -1z"/>
<path d="M4752 4161 c-7 -4 74 -11 184 -14 277 -10 692 -9 698 1 9 15 -859 28
-882 13z"/>
<path d="M5725 4160 c-3 -5 3 -10 14 -10 11 0 23 5 26 10 3 6 -3 10 -14 10
-11 0 -23 -4 -26 -10z"/>
<path d="M1012 4140 c-34 -15 -48 -29 -65 -67 -21 -47 -22 -57 -21 -398 1
-192 6 -386 11 -430 8 -62 10 15 9 345 -1 420 -1 426 21 470 27 55 49 69 116
77 76 8 93 22 27 22 -33 1 -72 -7 -98 -19z"/>
<path d="M5900 4152 c0 -9 41 -12 141 -12 77 0 182 -4 232 -10 149 -15 300
-19 287 -6 -19 19 -660 46 -660 28z"/>
<path d="M2063 4133 c126 -2 328 -2 450 0 122 1 20 2 -228 2 -247 0 -347 -1
-222 -2z"/>
<path d="M3550 4123 c0 -8 234 -18 890 -40 91 -3 163 -3 160 0 -5 5 -533 32
-857 43 -115 4 -193 3 -193 -3z"/>
<path d="M1310 4110 c0 -5 5 -10 10 -10 6 0 10 5 10 10 0 6 -4 10 -10 10 -5 0
-10 -4 -10 -10z"/>
<path d="M6130 4100 c-26 -6 -14 -8 50 -9 58 0 80 2 70 9 -17 11 -68 11 -120
0z"/>
<path d="M1110 4080 c0 -5 12 -10 26 -10 14 0 23 4 19 10 -3 6 -15 10 -26 10
-10 0 -19 -4 -19 -10z"/>
<path d="M5272 4083 c48 -2 129 -2 180 0 51 1 12 3 -87 3 -99 0 -141 -2 -93
-3z"/>
<path d="M6565 4080 c-3 -5 -1 -10 4 -10 6 0 11 5 11 10 0 6 -2 10 -4 10 -3 0
-8 -4 -11 -10z"/>
<path d="M6626 4082 c-3 -5 1 -15 9 -22 16 -14 20 -3 6 19 -5 8 -11 9 -15 3z"/>
<path d="M4790 4070 c0 -5 5 -10 10 -10 6 0 10 5 10 10 0 6 -4 10 -10 10 -5 0
-10 -4 -10 -10z"/>
<path d="M5793 4057 c-23 -7 -45 -16 -50 -21 -5 -5 2 -6 17 -2 55 14 189 19
237 7 62 -15 154 -51 171 -66 10 -9 -2 -14 -57 -24 -62 -11 -79 -11 -138 5
-129 33 -350 19 -405 -26 -22 -18 -20 -18 57 1 44 10 113 19 154 19 82 0 201
-18 201 -30 0 -4 -28 -17 -62 -30 -170 -61 -285 -193 -350 -404 -18 -58 -22
-95 -22 -206 0 -118 3 -142 23 -195 54 -137 147 -233 305 -314 87 -45 89 -48
53 -88 -20 -23 -23 -23 -287 -23 l-267 0 -283 190 c-155 105 -286 190 -291
190 -30 0 -40 -125 -15 -185 28 -66 56 -36 56 57 0 37 3 68 6 68 4 0 119 -75
256 -167 l249 -168 257 -10 257 -10 -86 -57 c-251 -165 -511 -241 -851 -249
-74 -2 -98 -12 -61 -26 20 -8 257 13 373 32 135 23 227 52 348 110 61 30 112
52 112 50 0 -5 -469 -316 -548 -363 l-53 -32 -152 113 c-306 227 -375 277
-517 367 -80 51 -158 104 -174 117 -25 21 -31 22 -43 10 -13 -12 -13 -24 -3
-73 23 -114 71 -182 107 -153 15 13 14 79 -2 122 -4 9 -3 17 3 17 17 0 245
-157 457 -315 303 -225 303 -225 330 -215 56 21 512 318 625 406 138 108 195
159 222 196 26 34 33 39 56 33 57 -14 139 -25 196 -25 l59 0 -46 -40 c-70 -62
-107 -124 -107 -180 0 -59 11 -68 92 -82 122 -22 211 -7 323 51 67 35 65 34
65 22 0 -6 -11 -17 -25 -23 -33 -15 -32 -28 3 -28 34 0 55 -15 76 -55 l15 -30
1 31 c0 16 -5 35 -11 41 -8 8 -8 13 0 17 6 4 11 12 11 17 0 6 -4 7 -10 4 -14
-8 -13 8 1 22 6 6 9 17 7 25 -3 8 -11 0 -22 -19 -9 -18 -21 -33 -26 -33 -21 0
-8 27 35 75 25 28 49 64 54 80 5 17 21 58 36 93 22 54 27 81 30 180 3 134 10
156 61 206 76 74 189 105 302 84 38 -8 95 -51 153 -116 53 -61 68 -90 85 -171
l14 -66 -5 55 c-8 95 -30 151 -85 212 -88 98 -108 107 -260 111 -64 2 -144
-30 -203 -83 -20 -17 -37 -30 -37 -29 0 2 9 27 19 54 31 83 44 195 31 276 -14
96 -44 182 -86 251 -19 31 -34 62 -34 70 0 7 -8 18 -19 23 -10 6 -49 36 -86
67 -89 75 -208 134 -305 150 -51 9 -93 23 -130 46 -111 66 -270 91 -387 59z
m580 -160 c200 -73 353 -233 413 -432 13 -43 18 -91 18 -170 -1 -120 -17 -177
-76 -280 -47 -79 -76 -104 -178 -152 -52 -24 -128 -65 -168 -90 l-74 -45 -121
4 c-141 5 -221 28 -340 99 -68 40 -207 167 -207 189 0 5 9 10 20 10 39 0 206
60 265 95 59 35 149 114 140 123 -2 2 -32 -18 -67 -45 -105 -84 -258 -147
-339 -141 -42 3 -43 4 -62 58 -26 72 -28 255 -3 350 57 226 214 392 386 407
33 3 63 10 66 14 3 5 -3 9 -12 9 -31 0 -7 11 43 20 81 15 222 4 296 -23z
m-1553 -986 c-1 -62 -3 -72 -12 -56 -6 10 -13 53 -15 95 -4 69 -3 73 11 56 12
-14 16 -42 16 -95z m1923 49 c-5 -20 -21 -36 -28 -28 -5 4 23 48 30 48 2 0 1
-9 -2 -20z m-13 -55 c0 -3 -4 -13 -9 -23 -5 -9 -15 -32 -22 -51 -7 -19 -28
-54 -47 -79 -18 -24 -31 -46 -29 -48 7 -8 69 75 95 125 l23 46 -4 -75 c-5 -83
-50 -208 -94 -261 -15 -17 -71 -52 -132 -82 l-106 -52 -118 2 c-65 2 -126 7
-137 13 -25 13 -27 68 -4 116 20 41 129 146 205 196 120 80 379 198 379 173z
m-2449 -297 c26 -51 36 -118 17 -118 -7 0 -21 12 -30 28 -17 29 -48 126 -48
150 0 23 38 -15 61 -60z"/>
<path d="M5730 3652 c0 -6 18 -13 40 -17 22 -4 56 -18 75 -31 42 -28 45 -29
45 -10 0 24 -56 57 -110 63 -32 4 -50 2 -50 -5z"/>
<path d="M5712 3495 c-18 -38 -15 -100 6 -125 24 -29 47 -18 67 34 15 39 15
46 1 79 -19 46 -56 51 -74 12z"/>
<path d="M6540 2619 c0 -5 5 -7 10 -4 6 3 10 8 10 11 0 2 -4 4 -10 4 -5 0 -10
-5 -10 -11z"/>
<path d="M6320 2480 c-25 -11 -38 -19 -29 -19 24 -1 79 20 79 30 0 5 -1 9 -2
8 -2 -1 -23 -9 -48 -19z"/>
<path d="M1021 4034 c-19 -25 -27 -44 -17 -44 2 0 13 16 25 35 24 42 21 45 -8
9z"/>
<path d="M6688 3924 c-3 -119 2 -154 16 -118 10 25 7 232 -3 239 -6 3 -11 -45
-13 -121z"/>
<path d="M1072 3820 c0 -14 2 -19 5 -12 2 6 2 18 0 25 -3 6 -5 1 -5 -13z"/>
<path d="M961 3458 c0 -123 2 -218 4 -213 8 23 11 435 4 435 -5 0 -9 -100 -8
-222z"/>
<path d="M2808 3534 c-14 -21 -35 -59 -48 -84 -13 -25 -60 -108 -105 -185 -45
-77 -120 -210 -167 -297 -48 -86 -115 -203 -150 -260 -36 -56 -86 -138 -112
-180 -26 -43 -51 -78 -55 -78 -5 0 -28 9 -52 19 -66 29 -204 45 -272 32 -50
-9 -117 -44 -117 -61 0 -3 15 -15 33 -25 28 -18 51 -20 202 -20 132 0 176 3
199 15 20 11 65 75 158 230 72 118 151 253 176 300 25 47 99 178 164 292 65
114 128 228 140 253 12 25 25 45 29 45 5 0 70 -70 146 -156 76 -86 162 -184
192 -218 180 -205 257 -286 268 -286 23 0 14 16 -54 91 -38 41 -151 169 -253
284 -102 115 -210 237 -241 269 l-57 60 -24 -40z m-730 -1079 c28 -9 52 -19
52 -24 0 -23 -313 -19 -351 5 -13 7 -2 23 25 35 31 13 212 3 274 -16z"/>
<path d="M4210 3270 c0 -5 13 -10 29 -10 15 0 40 -9 54 -20 14 -11 28 -20 31
-20 13 0 5 21 -14 40 -21 21 -100 29 -100 10z"/>
<path d="M530 3211 c-145 -47 -229 -135 -266 -278 -17 -65 -19 -762 -3 -1008
5 -82 12 -388 15 -680 3 -291 8 -533 12 -537 4 -3 32 -10 62 -15 l55 -8 5 -50
5 -50 156 -3 c189 -3 227 6 244 58 11 34 13 35 71 38 64 3 94 22 93 56 0 21 0
21 -16 -2 -15 -22 -16 -22 -312 -22 -340 0 -347 2 -344 65 4 125 1 607 -7 830
-39 1149 -38 1294 9 1400 30 68 84 121 161 158 117 56 253 40 372 -44 17 -12
39 -42 50 -66 22 -49 28 -53 28 -19 0 40 -81 130 -142 156 -57 25 -199 37
-248 21z m155 -2571 c-15 -23 -29 -40 -31 -37 -7 7 25 70 40 79 20 13 17 0 -9
-42z m78 44 c3 -3 -2 -21 -10 -40 -12 -25 -23 -34 -40 -34 -26 0 -25 3 9 53
19 27 29 32 41 21z m-302 -39 c-9 -19 -19 -34 -23 -35 -11 0 -10 18 2 25 6 3
10 15 10 26 0 10 6 19 14 19 11 0 10 -6 -3 -35z m49 -5 c-11 -22 -25 -40 -30
-40 -13 0 -13 4 7 45 9 19 23 35 30 35 10 0 8 -10 -7 -40z m56 12 c-18 -34
-46 -60 -46 -43 0 15 41 71 52 71 5 0 2 -13 -6 -28z m77 -7 c-9 -19 -23 -35
-30 -35 -10 0 -9 8 4 35 9 19 23 35 30 35 10 0 9 -8 -4 -35z m147 -5 c0 -20
-25 -38 -37 -26 -5 5 24 46 34 46 1 0 3 -9 3 -20z m-206 -15 c-4 -8 -11 -15
-16 -15 -6 0 -5 6 2 15 7 8 14 15 16 15 2 0 1 -7 -2 -15z"/>
<path d="M3945 3064 c-374 -152 -498 -205 -509 -215 -21 -19 16 -7 170 57 224
92 253 103 259 94 9 -14 -7 -21 -309 -155 -32 -14 -56 -28 -54 -31 5 -5 43 11
373 158 105 46 199 88 209 92 10 3 16 9 13 12 -3 3 -48 -13 -100 -35 -104 -45
-107 -45 -107 -32 0 15 323 147 337 138 5 -3 58 -83 118 -177 61 -95 131 -201
158 -237 26 -35 47 -66 47 -68 0 -2 -25 -19 -55 -37 -52 -31 -68 -48 -45 -48
5 0 36 17 67 37 l58 37 245 4 245 4 -149 -151 c-82 -83 -147 -154 -143 -157
10 -10 57 29 143 117 44 46 106 107 137 136 97 88 100 87 -218 78 l-274 -7
-49 79 c-96 151 -277 423 -282 422 -3 -1 -131 -52 -285 -115z"/>
<path d="M4746 3171 c-3 -4 12 -8 34 -8 22 0 40 4 40 8 0 5 -15 9 -34 9 -19 0
-37 -4 -40 -9z"/>
<path d="M574 3121 c-23 -10 -45 -24 -48 -30 -10 -15 -5 -14 45 9 70 32 153
24 205 -18 11 -9 3 0 -18 21 -34 33 -42 37 -90 37 -30 0 -71 -9 -94 -19z"/>
<path d="M1045 3117 c-44 -18 -57 -28 -89 -71 l-29 -39 7 -251 c3 -138 11
-318 16 -401 5 -82 14 -303 20 -490 5 -187 16 -488 22 -670 7 -181 13 -354 13
-383 0 -28 3 -52 6 -52 3 0 14 9 24 20 17 18 17 25 6 55 -17 47 -44 715 -30
729 3 4 9 -29 13 -71 4 -43 16 -166 26 -273 l19 -195 -4 145 c-3 80 -12 206
-21 280 -9 74 -17 160 -19 190 -4 70 -4 68 -15 50 -13 -20 -13 1 0 34 7 19 17
26 35 26 14 0 25 4 25 9 0 6 13 6 33 1 70 -18 294 -20 482 -5 236 19 581 35
743 35 74 0 122 4 122 10 0 22 -486 7 -860 -26 -159 -14 -205 -15 -330 -4
-153 13 -185 23 -220 67 -18 24 -20 35 -15 89 4 36 0 134 -10 236 l-17 175 26
51 c19 37 31 50 48 51 13 0 44 3 69 7 32 4 74 -1 130 -15 115 -28 266 -43 310
-31 50 14 79 31 79 47 0 8 4 12 9 9 5 -4 23 2 39 11 27 16 30 22 36 93 11 131
-22 205 -133 304 -79 71 -178 135 -330 212 -102 52 -177 65 -236 41z m153 -34
c122 -48 375 -205 439 -272 45 -47 103 -209 89 -252 -2 -8 -7 -26 -10 -41 -4
-19 -13 -28 -25 -28 -11 0 -32 -11 -48 -24 -63 -52 -87 -55 -246 -31 -139 21
-174 39 -281 148 -123 124 -156 188 -156 301 0 130 22 184 85 212 45 20 79 17
153 -13z m-203 -491 l-28 -37 31 29 c38 35 54 27 26 -12 -36 -48 -36 -58 -2
-21 l33 37 59 -53 c35 -31 55 -55 48 -59 -6 -3 -35 -8 -63 -10 -44 -3 -57 -9
-76 -32 -12 -16 -26 -42 -29 -59 l-7 -30 -7 26 c-4 15 -11 100 -14 190 l-7
164 32 -48 31 -47 -27 -38z m2 -615 c-2 -23 -3 -1 -3 48 0 50 1 68 3 42 2 -26
2 -67 0 -90z"/>
<path d="M1048 2943 c51 -72 261 -242 363 -294 76 -38 76 -31 2 11 -73 41
-194 135 -303 236 -47 44 -74 65 -62 47z"/>
<path d="M1035 2755 c16 -68 50 -127 97 -170 74 -66 80 -55 11 18 -38 40 -66
80 -78 112 -22 59 -41 85 -30 40z"/>
<path d="M1288 2480 c18 -11 38 -18 43 -14 12 7 -35 34 -60 34 -9 0 -2 -8 17
-20z"/>
<path d="M940 3084 c0 -21 4 -33 10 -29 6 3 10 19 10 36 0 16 -4 29 -10 29 -5
0 -10 -16 -10 -36z"/>
<path d="M4190 3111 c0 -5 6 -8 14 -7 13 1 148 -195 238 -346 22 -38 44 -68
49 -68 17 0 -28 76 -179 303 -58 88 -90 127 -103 127 -11 0 -19 -4 -19 -9z"/>
<path d="M4762 3088 c-17 -17 -15 -33 3 -18 9 8 27 10 46 6 22 -4 29 -2 27 7
-6 17 -60 21 -76 5z"/>
<path d="M7010 3093 c0 -5 27 -16 60 -26 40 -11 72 -29 100 -55 46 -45 50 -42
15 10 -18 26 -40 42 -80 57 -57 22 -95 27 -95 14z"/>
<path d="M6862 3048 c-26 -28 -62 -93 -62 -113 0 -18 18 0 28 28 6 18 28 50
47 71 19 21 35 40 35 42 0 12 -20 0 -48 -28z"/>
<path d="M383 3017 c-37 -40 -74 -137 -52 -137 5 0 9 8 9 18 0 10 16 44 35 77
38 62 41 79 8 42z"/>
<path d="M865 2980 c3 -5 8 -10 11 -10 2 0 4 5 4 10 0 6 -5 10 -11 10 -5 0 -7
-4 -4 -10z"/>
<path d="M7274 2880 c8 -52 31 -128 40 -137 16 -15 -5 100 -25 136 l-20 36 5
-35z"/>
<path d="M881 2825 c-2 -100 11 -255 22 -255 10 0 0 227 -13 282 -7 28 -8 24
-9 -27z"/>
<path d="M3310 2854 c-13 -33 -13 -60 0 -85 17 -31 30 -22 19 13 -5 18 -6 48
-3 65 7 39 -3 43 -16 7z"/>
<path d="M3416 2822 c-4 -6 1 -19 11 -29 10 -10 34 -43 54 -73 35 -52 236
-294 340 -408 28 -31 49 -63 49 -76 0 -56 -8 -54 417 -58 l393 -3 47 47 c26
26 44 50 40 54 -3 4 -23 -10 -43 -30 -20 -20 -38 -36 -40 -36 -14 0 0 38 23
62 19 20 22 28 12 28 -9 0 -28 -14 -45 -31 l-29 -31 -345 5 c-190 3 -355 8
-368 12 -21 7 -18 10 30 40 29 18 98 57 153 88 112 62 142 83 135 91 -6 5
-277 -146 -332 -185 l-31 -22 -21 29 c-18 25 -111 136 -290 349 -28 33 -69 80
-91 106 -22 25 -45 54 -51 64 -7 13 -13 15 -18 7z m947 -606 c172 -1 287 -5
287 -11 0 -9 -728 -11 -737 -1 -3 3 -2 10 2 17 6 8 28 9 84 4 42 -5 205 -9
364 -9z"/>
<path d="M4160 2800 c-8 -5 -11 -12 -8 -15 4 -4 17 0 30 9 24 17 5 23 -22 6z"/>
<path d="M3501 2773 c8 -10 52 -63 99 -118 47 -56 123 -147 169 -203 46 -56
87 -102 93 -102 13 0 7 9 -117 165 -121 152 -231 275 -247 275 -6 0 -4 -8 3
-17z"/>
<path d="M4783 2775 c5 -16 40 -17 60 -3 16 12 13 13 -23 13 -23 0 -39 -4 -37
-10z"/>
<path d="M7377 2759 c-4 -9 -4 -108 0 -220 5 -118 11 -180 13 -147 7 85 -4
386 -13 367z"/>
<path d="M4184 2744 c-18 -14 -18 -15 6 -8 14 3 32 10 40 15 12 7 11 8 -6 9
-11 0 -29 -7 -40 -16z"/>
<path d="M4436 2649 c-26 -17 -45 -34 -42 -36 6 -7 96 49 96 60 0 11 -3 10
-54 -24z"/>
<path d="M325 2105 c2 -314 8 -586 13 -605 10 -41 4 702 -8 985 -6 131 -7 13
-5 -380z"/>
<path d="M4575 2621 c-16 -11 -41 -29 -55 -41 l-25 -21 30 5 c38 7 68 -8 36
-19 -11 -3 -21 -10 -21 -15 0 -13 34 -30 59 -30 15 0 19 -4 14 -17 -6 -16 -5
-16 17 0 14 9 40 17 60 17 l35 -1 -32 -29 c-31 -28 -33 -48 -3 -30 24 15 170
163 165 168 -2 3 -10 0 -17 -5 -24 -19 -71 -25 -79 -11 -7 10 -11 10 -21 0 -6
-6 -30 -12 -52 -12 -38 0 -39 1 -23 18 11 11 40 19 80 23 61 6 61 6 -25 7 -47
1 -92 4 -100 7 -7 3 -26 -4 -43 -14z m85 -6 c0 -10 -61 -35 -87 -35 l-28 1 24
19 c20 17 91 29 91 15z m130 -52 c0 -21 -37 -43 -73 -43 l-40 0 24 19 c31 24
89 40 89 24z m-100 -11 c0 -17 -48 -33 -91 -30 l-44 3 30 17 c31 18 105 24
105 10z"/>
<path d="M4951 2484 c-78 -80 -141 -150 -141 -155 0 -17 19 -9 39 17 16 21
217 237 257 277 4 4 3 7 -3 7 -6 0 -74 -66 -152 -146z"/>
<path d="M4347 2543 c-13 -13 -7 -21 13 -16 11 3 20 9 20 14 0 10 -24 12 -33
2z"/>
<path d="M4761 2486 c-52 -53 -50 -76 6 -75 l38 1 -30 10 c-42 15 -42 15 -5
53 24 25 43 35 64 35 24 0 27 3 16 10 -27 18 -45 11 -89 -34z"/>
<path d="M4055 2419 c-82 -49 -156 -87 -162 -84 -16 5 -17 -11 -3 -20 13 -8
340 176 340 191 0 14 -42 -7 -175 -87z"/>
<path d="M4364 2482 c-21 -15 -94 -63 -161 -107 -68 -43 -121 -80 -118 -83 2
-3 16 3 29 12 14 9 45 16 68 16 l43 -1 -25 -20 c-19 -16 -36 -20 -80 -19 -74
3 -91 0 -57 -10 27 -8 201 -13 352 -10 54 1 65 3 47 11 -13 5 -35 6 -48 3 -14
-4 -24 -2 -24 5 0 19 44 40 80 37 19 -2 44 -4 54 -5 18 -1 18 -2 1 -21 -10
-11 -14 -20 -9 -20 5 0 25 17 44 38 53 57 68 81 30 46 -31 -27 -40 -30 -82
-26 -27 2 -48 8 -48 13 0 14 36 29 72 30 23 1 26 3 11 6 -27 5 -28 11 -6 35 9
10 12 18 6 18 -5 0 -18 -9 -28 -20 -19 -21 -71 -26 -109 -11 -18 7 -18 8 5 24
14 10 44 17 74 18 l50 1 -33 12 c-18 6 -30 15 -25 20 5 5 0 6 -12 1 -25 -10
-95 -19 -95 -12 0 3 15 14 33 26 19 12 26 21 16 21 -9 0 -34 -13 -55 -28z m6
-33 c0 -5 4 -8 9 -4 5 3 12 1 15 -4 10 -16 -44 -42 -81 -39 l-37 3 40 27 c43
30 54 33 54 17z m-52 -64 c2 -2 -11 -13 -27 -25 -21 -15 -42 -20 -68 -18 l-37
3 40 27 c27 18 47 25 64 21 14 -3 26 -7 28 -8z m140 -17 c-8 -24 -52 -36 -107
-31 l-54 6 24 18 c29 22 143 28 137 7z m-73 -68 c-22 -22 -34 -24 -120 -21
l-60 1 25 20 c20 15 41 20 100 20 74 0 74 0 55 -20z"/>
<path d="M4841 2473 c-33 -40 -42 -64 -16 -43 23 19 58 70 52 76 -2 3 -19 -12
-36 -33z"/>
<path d="M6700 2497 c0 -9 -7 -17 -15 -17 -8 0 -15 -2 -15 -4 0 -2 -3 -13 -6
-23 -5 -16 -4 -16 12 2 l17 20 -8 -20 c-4 -11 -9 -29 -12 -40 -4 -16 -3 -17 6
-5 8 11 11 -61 11 -256 l0 -272 -36 -32 c-31 -27 -34 -33 -21 -43 8 -7 19 -21
25 -32 11 -19 11 -19 12 5 0 14 5 32 10 40 7 11 10 2 10 -33 0 -30 -4 -46 -10
-42 -6 4 -10 -15 -10 -49 0 -30 4 -57 9 -60 4 -3 6 -121 4 -263 -3 -142 0
-330 5 -418 6 -105 6 -167 -1 -180 -7 -13 -6 -20 2 -23 6 -2 11 -21 11 -42 0
-34 3 -38 31 -44 17 -3 55 -6 84 -6 50 0 52 -1 47 -25 -6 -34 20 -42 148 -45
162 -4 212 -2 204 11 -3 6 -15 9 -25 6 -20 -5 -26 7 -9 18 6 3 10 11 10 17 0
6 -10 2 -23 -10 -27 -26 -78 -32 -57 -7 7 8 8 15 2 15 -5 0 -15 -7 -22 -15 -7
-8 -22 -15 -33 -15 -16 0 -18 3 -9 12 24 24 12 31 -13 8 -26 -25 -47 -21 -25
5 19 23 0 18 -27 -7 -29 -27 -37 -20 -14 11 21 27 27 28 174 30 79 1 106 4
101 13 -5 8 -69 9 -240 5 -167 -5 -241 -3 -259 5 -24 11 -25 15 -25 105 0 62
-4 93 -11 93 -8 0 -9 13 -5 40 7 47 9 1571 1 1578 -3 3 -5 -2 -5 -11z m237
-1864 c-14 -15 -29 -24 -33 -21 -3 4 6 19 21 33 14 15 29 24 33 21 3 -4 -6
-19 -21 -33z"/>
<path d="M2450 2490 c-82 -8 -199 -36 -215 -51 -12 -12 31 -12 75 1 91 26 241
40 318 31 413 -54 542 -67 527 -52 -10 10 -112 26 -378 61 -165 21 -203 22
-327 10z"/>
<path d="M3405 2468 c-27 -11 -86 -23 -130 -27 -76 -7 -79 -8 -53 -20 33 -17
117 -3 185 30 l42 20 109 -30 c125 -36 149 -38 107 -12 -31 20 -167 62 -195
60 -8 -1 -37 -10 -65 -21z"/>
<path d="M5754 2478 c-8 -12 34 -17 184 -22 79 -3 142 -1 142 4 0 16 -317 34
-326 18z"/>
<path d="M6761 1995 c-1 -253 -3 -498 -6 -545 -3 -63 -2 -76 5 -50 13 51 24
966 12 1015 -7 28 -10 -92 -11 -420z"/>
<path d="M5345 2410 c-4 -6 7 -10 24 -10 17 0 31 5 31 10 0 6 -11 10 -24 10
-14 0 -28 -4 -31 -10z"/>
<path d="M5195 2388 c-38 -5 -117 -12 -175 -17 l-105 -8 95 -1 c100 0 282 19
265 29 -5 3 -41 1 -80 -3z"/>
<path d="M7310 2233 c0 -93 -2 -267 -4 -388 -3 -152 -2 -195 4 -140 15 148 25
695 12 695 -9 0 -12 -47 -12 -167z"/>
<path d="M1746 2376 c3 -7 17 -19 32 -26 40 -18 210 -35 257 -25 35 8 24 10
-88 21 -71 7 -142 20 -159 29 -38 19 -49 19 -42 1z"/>
<path d="M2154 2356 c-10 -8 -15 -18 -11 -22 4 -4 15 0 24 9 22 21 12 31 -13
13z"/>
<path d="M1020 2341 c0 -12 41 -31 66 -31 22 0 16 17 -8 23 -13 2 -31 8 -40
12 -11 4 -18 3 -18 -4z"/>
<path d="M1160 2313 c0 -21 460 -32 505 -13 12 5 -57 9 -175 9 -107 1 -225 4
-262 8 -43 4 -68 2 -68 -4z"/>
<path d="M3340 2311 c-23 -6 -23 -8 -5 -12 30 -8 165 2 165 12 0 10 -123 10
-160 0z"/>
<path d="M3675 2299 c-95 -23 -401 -105 -465 -124 -25 -8 -144 -43 -265 -79
-276 -81 -427 -133 -441 -152 -6 -8 -14 -35 -18 -60 -3 -25 -35 -148 -71 -274
-35 -125 -107 -396 -159 -602 -52 -205 -104 -403 -115 -439 l-21 -67 -68 28
c-92 39 -176 53 -274 48 -89 -5 -120 -18 -138 -57 -16 -35 3 -50 86 -63 94
-14 376 -7 398 11 23 19 43 90 167 571 59 234 133 514 164 624 30 109 55 211
55 226 0 15 6 33 13 39 38 31 769 250 1136 341 68 16 126 30 127 30 2 0 4 5 4
10 0 13 -20 11 -115 -11z m-1691 -1775 c121 -41 110 -46 -94 -42 -205 4 -247
13 -215 48 33 36 194 33 309 -6z"/>
<path d="M6655 2294 c-4 -16 -8 -35 -11 -42 -2 -7 0 -11 5 -7 11 6 25 64 17
72 -3 3 -8 -8 -11 -23z"/>
<path d="M5699 2301 c18 -5 108 -11 200 -14 100 -4 146 -2 116 2 -73 12 -358
22 -316 12z"/>
<path d="M6330 2300 c0 -6 28 -10 68 -9 62 1 64 2 27 10 -56 11 -95 11 -95 -1z"/>
<path d="M1790 2280 c0 -5 5 -10 10 -10 6 0 10 5 10 10 0 6 -4 10 -10 10 -5 0
-10 -4 -10 -10z"/>
<path d="M2285 2270 c-120 -5 -120 -5 -54 -13 36 -5 110 -6 165 -3 54 3 169 6
254 6 92 1 147 5 135 9 -22 9 -298 9 -500 1z"/>
<path d="M3160 2270 c0 -5 5 -10 10 -10 6 0 10 5 10 10 0 6 -4 10 -10 10 -5 0
-10 -4 -10 -10z"/>
<path d="M7394 1775 c8 -594 19 -931 30 -942 4 -4 6 120 3 277 -8 460 -28
1124 -34 1130 -3 3 -2 -206 1 -465z"/>
<path d="M897 2208 c-2 -7 -1 -22 4 -33 6 -16 8 -14 8 13 1 33 -4 41 -12 20z"/>
<path d="M6656 2158 c-13 -106 -16 -212 -7 -203 11 11 28 245 18 245 -3 0 -8
-19 -11 -42z"/>
<path d="M6654 1880 c-10 -11 -43 -25 -72 -32 -52 -13 -70 -28 -32 -28 32 0
83 25 109 54 29 30 25 35 -5 6z"/>
<path d="M911 1538 c1 -178 5 -350 9 -383 4 -35 8 100 9 323 0 249 -2 382 -9
382 -6 0 -10 -113 -9 -322z"/>
<path d="M1080 1851 c0 -18 28 -31 83 -37 40 -5 57 -3 57 5 0 6 -18 11 -43 11
-24 0 -52 7 -63 15 -22 17 -34 19 -34 6z"/>
<path d="M5160 1819 c-377 -4 -1123 -5 -1659 -2 -831 5 -973 4 -969 -8 4 -12
182 -14 1179 -13 1359 0 2579 11 2629 24 42 10 -229 9 -1180 -1z"/>
<path d="M6626 1583 c-10 -169 -26 -407 -33 -483 -3 -36 -3 -62 1 -58 18 15
58 639 43 654 -3 3 -8 -48 -11 -113z"/>
<path d="M7302 1560 c0 -14 2 -19 5 -12 2 6 2 18 0 25 -3 6 -5 1 -5 -13z"/>
<path d="M4370 1356 c0 -4 4 -16 10 -26 8 -15 3 -27 -25 -60 -41 -49 -43 -70
-14 -112 l22 -30 -23 -74 c-13 -41 -20 -77 -17 -81 10 -10 12 -5 40 82 22 71
23 82 11 100 -39 55 -39 62 -1 111 21 26 37 50 37 54 0 4 -9 15 -20 25 -11 10
-20 15 -20 11z"/>
<path d="M346 1309 c-9 -47 -6 -361 4 -384 5 -12 9 67 9 198 1 119 -1 217 -3
217 -2 0 -6 -14 -10 -31z"/>
<path d="M4487 1303 c-28 -56 -30 -84 -5 -110 22 -24 22 -25 5 -54 -19 -34
-22 -65 -7 -74 6 -3 10 -16 10 -28 0 -16 3 -18 12 -9 10 10 10 19 1 43 -10 27
-9 37 8 72 l21 40 -28 22 -27 22 16 48 c19 55 16 71 -6 28z"/>
<path d="M7308 1040 c2 -179 6 -290 12 -290 6 0 10 101 10 268 0 252 -4 312
-19 312 -3 0 -5 -130 -3 -290z"/>
<path d="M6765 1058 c-3 -7 -1 -40 4 -73 l9 -60 1 73 c1 68 -4 88 -14 60z"/>
<path d="M4478 925 c-2 -3 -63 -7 -134 -9 l-129 -4 2 -59 c3 -100 25 -246 45
-300 24 -66 32 -68 194 -55 186 15 184 32 -3 32 -109 0 -153 3 -160 13 -5 6
-17 71 -27 142 -9 72 -19 146 -22 166 l-5 37 128 6 c70 3 148 8 173 10 32 3
52 0 68 -12 l23 -18 -16 -144 c-18 -171 -18 -193 -5 -185 6 3 10 17 10 31 0
13 9 32 21 42 11 9 43 38 70 64 46 45 49 51 49 98 0 44 -3 52 -26 62 -19 9
-33 9 -55 1 -29 -11 -29 -11 -29 23 0 30 -5 37 -35 50 -32 13 -126 20 -137 9z
m252 -120 c23 -28 3 -80 -47 -125 -25 -22 -47 -39 -49 -37 -2 1 1 38 5 80 4
51 12 82 22 88 21 13 55 11 69 -6z"/>
<path d="M4665 750 c-8 -12 20 -24 35 -15 5 3 10 10 10 16 0 12 -37 12 -45 -1z"/>
<path d="M6610 860 c0 -5 5 -10 10 -10 6 0 10 5 10 10 0 6 -4 10 -10 10 -5 0
-10 -4 -10 -10z"/>
<path d="M935 850 c-3 -5 -1 -10 4 -10 6 0 11 5 11 10 0 6 -2 10 -4 10 -3 0
-8 -4 -11 -10z"/>
<path d="M3503 833 c-227 -3 -313 -6 -313 -15 0 -15 719 -3 734 12 7 7 -9 9
-49 8 -33 -2 -201 -4 -372 -5z"/>
<path d="M4970 820 c0 -5 3 -10 8 -10 4 0 48 -5 97 -10 155 -17 477 -40 550
-39 l70 2 -70 7 c-38 5 -140 13 -225 20 -85 6 -213 18 -285 26 -156 17 -145
16 -145 4z"/>
<path d="M2550 806 c-165 -10 -178 -12 -120 -19 36 -4 74 -5 86 -3 12 2 115 8
230 12 115 4 232 10 259 14 78 12 -242 8 -455 -4z"/>
<path d="M500 780 c-10 -6 45 -9 165 -9 106 1 170 4 155 9 -36 12 -302 12
-320 0z"/>
<path d="M1210 780 c0 -6 48 -10 124 -10 73 0 127 4 131 10 4 6 -40 10 -124
10 -81 0 -131 -4 -131 -10z"/>
<path d="M6157 783 c18 -2 50 -2 70 0 21 2 7 4 -32 4 -38 0 -55 -2 -38 -4z"/>
<path d="M1044 766 c-3 -9 -1 -23 6 -31 14 -17 85 -21 95 -5 4 6 -6 10 -24 10
-18 0 -38 9 -50 22 -18 19 -21 19 -27 4z"/>
<path d="M1570 768 c0 -4 66 -7 148 -7 81 1 140 3 132 5 -37 7 -280 10 -280 2z"/>
<path d="M3345 760 c4 -6 158 -10 431 -10 276 0 424 3 424 10 0 7 -150 10
-431 10 -284 0 -428 -3 -424 -10z"/>
<path d="M2515 750 c-291 -8 -275 -7 -275 -20 0 -13 79 -13 485 1 450 15 572
26 270 26 -126 -1 -342 -4 -480 -7z"/>
<path d="M4770 741 c0 -8 113 -15 515 -30 269 -10 1387 -2 1379 10 -3 6 -278
9 -672 8 -367 0 -757 4 -867 10 -244 13 -355 14 -355 2z"/>
<path d="M6915 740 c4 -6 54 -10 118 -10 76 0 107 3 97 10 -20 13 -223 13
-215 0z"/>
<path d="M1375 730 c-310 -8 -173 -20 225 -20 349 0 550 8 550 22 0 8 -406 8
-775 -2z"/>
<path d="M7397 726 c-6 -16 2 -28 14 -20 12 7 11 34 0 34 -5 0 -11 -6 -14 -14z"/>
<path d="M7356 671 c-4 -5 -2 -12 3 -15 5 -4 12 -2 15 3 4 5 2 12 -3 15 -5 4
-12 2 -15 -3z"/>
<path d="M7254 635 c-7 -17 4 -37 17 -30 12 8 12 45 -1 45 -6 0 -13 -7 -16
-15z"/>
</g>
</svg>
