<?xml version="1.0" standalone="no"?>
<!DOCTYPE svg PUBLIC "-//W3C//DTD SVG 20010904//EN"
 "http://www.w3.org/TR/2001/REC-SVG-20010904/DTD/svg10.dtd">
<svg version="1.0" xmlns="http://www.w3.org/2000/svg"
 width="768.000000pt" height="588.000000pt" viewBox="0 0 768.000000 588.000000"
 preserveAspectRatio="xMidYMid meet">

<g transform="translate(0.000000,588.000000) scale(0.100000,-0.100000)"
fill="#000000" stroke="none">
<path d="M1338 5700 c-109 -3 -161 -9 -170 -18 -10 -10 -14 -195 -16 -932 l-3
-919 23 -13 c58 -32 97 -38 259 -38 91 0 301 -3 467 -7 l302 -6 1 -116 c0 -64
4 -172 8 -241 4 -72 4 -128 -2 -131 -7 -5 -160 -20 -207 -20 -36 0 -59 -10
-65 -28 -5 -17 -20 -19 -185 -23 -169 -4 -203 -8 -186 -25 3 -4 319 -9 702
-11 634 -4 695 -6 692 -21 -2 -12 -17 -17 -56 -19 -30 -2 -59 1 -65 7 -8 6
-27 6 -55 -2 -31 -8 -53 -8 -83 0 -29 7 -51 8 -75 0 -24 -7 -44 -7 -69 1 -23
6 -47 7 -67 1 -17 -5 -98 -8 -180 -8 -123 1 -148 3 -148 16 0 12 -3 12 -22 -1
-31 -22 -114 -21 -126 1 -9 16 -11 16 -27 0 -20 -21 -83 -23 -91 -3 -5 12 -10
12 -33 -2 -32 -18 -64 -11 -55 13 8 21 -2 19 -27 -6 -23 -23 -96 -24 -91 -1 2
14 -14 16 -23 2 -8 -13 -68 -13 -82 1 -11 11 -46 -27 -73 -81 -12 -22 -11 -24
2 -12 12 9 119 11 494 8 562 -6 484 -6 567 0 65 6 67 5 67 -17 0 -20 1 -21 13
-6 8 11 34 19 79 23 59 6 68 4 74 -10 5 -14 9 -15 15 -5 6 10 51 12 189 11
100 -1 186 -4 191 -8 5 -3 15 -1 22 4 14 12 127 20 127 10 0 -5 5 -8 10 -8 7
0 7 6 0 19 -15 29 -13 31 29 31 22 0 43 5 46 10 7 11 -29 14 -150 15 -57 0
-70 3 -73 17 -3 13 8 18 53 23 30 4 83 5 117 3 60 -4 65 -7 94 -55 15 -23 28
-11 20 19 -10 38 -21 49 -62 58 -21 5 -361 10 -754 10 -509 0 -710 4 -697 11
24 14 1016 28 1020 15 5 -16 27 4 27 25 0 18 -11 19 -395 19 l-395 0 0 245 0
245 208 0 208 0 -4 -156 c-3 -105 0 -176 8 -213 20 -88 28 -40 29 164 1 99 5
185 9 192 6 9 142 14 537 18 292 3 540 8 552 11 34 6 53 32 54 72 1 28 3 31 6
12 3 -14 9 -29 13 -34 5 -5 6 -21 4 -36 -4 -19 1 -35 19 -56 23 -26 31 -29 84
-29 67 1 151 40 184 87 l20 27 54 -54 c131 -131 278 -217 483 -285 198 -65
319 -83 502 -77 163 6 240 20 240 44 0 11 -10 12 -52 6 -104 -16 -377 -9 -463
11 -312 72 -501 162 -673 321 l-72 67 0 65 c0 48 -5 74 -20 98 -33 54 -64 68
-134 62 -55 -5 -68 -2 -131 29 -72 36 -227 74 -301 74 -43 0 -94 -30 -94 -55
0 -7 16 -27 37 -44 32 -26 71 -41 251 -97 9 -3 11 -11 6 -26 -4 -13 -8 -50
-10 -83 l-2 -60 -1274 -5 c-1221 -5 -1274 -4 -1306 13 l-32 19 2 906 3 907
1306 3 1306 2 6 -472 c4 -260 7 -589 7 -730 0 -232 6 -298 24 -252 8 21 8
1458 0 1478 -6 14 -117 16 -1173 14 -641 -1 -1237 -4 -1323 -8z m2441 -1582
c67 -21 141 -54 141 -64 0 -3 -16 -12 -35 -19 -32 -14 -41 -13 -160 26 -77 25
-136 50 -153 65 l-27 25 84 -6 c46 -4 114 -16 150 -27z m341 -85 c35 -31 47
-85 36 -148 -9 -45 -21 -37 -21 13 0 28 -5 39 -24 48 -13 7 -27 17 -31 24 -5
9 -29 5 -89 -14 -84 -27 -145 -33 -155 -17 -13 20 8 42 62 66 32 15 68 32 82
40 45 24 106 18 140 -12z m-42 -109 c46 -32 12 -63 -79 -71 -130 -12 -148 26
-29 62 41 12 77 23 80 24 3 0 16 -6 28 -15z m39 -101 c6 -17 -33 -49 -76 -61
-76 -23 -141 -10 -141 28 0 18 7 20 58 21 31 0 73 7 92 14 40 16 62 15 67 -2z
m-1027 -673 c0 -18 -7 -20 -55 -20 -48 0 -55 2 -55 20 0 18 7 20 55 20 48 0
55 -2 55 -20z m98 3 c-2 -14 -13 -18 -43 -18 -30 0 -41 4 -43 18 -3 14 4 17
43 17 39 0 46 -3 43 -17z m-820 -48 c-8 -8 -88 -12 -88 -5 0 5 5 10 11 12 13
4 82 -3 77 -7z m-748 -5 c0 -5 -16 -10 -35 -10 -19 0 -35 5 -35 10 0 6 16 10
35 10 19 0 35 -4 35 -10z m125 0 c-3 -5 -29 -10 -56 -10 -31 0 -48 4 -44 10 3
6 29 10 56 10 31 0 48 -4 44 -10z m100 0 c-3 -5 -22 -10 -41 -10 -21 0 -33 4
-29 10 3 6 22 10 41 10 21 0 33 -4 29 -10z m110 5 c-23 -8 -83 -10 -79 -3 3 4
24 8 47 7 23 0 38 -2 32 -4z m162 -1 c-11 -11 -127 -15 -127 -4 0 6 30 10 67
10 36 0 63 -3 60 -6z m93 -4 c-25 -4 -49 -4 -54 1 -6 5 12 8 45 8 l54 -2 -45
-7z m276 3 c-11 -12 -84 -14 -91 -3 -4 6 14 10 46 10 29 0 49 -3 45 -7z m143
3 c-11 -9 -99 -15 -99 -6 0 6 23 10 52 10 28 0 49 -2 47 -4z m161 -6 c-8 -5
-31 -10 -50 -10 -19 0 -42 5 -50 10 -11 7 4 10 50 10 46 0 61 -3 50 -10z m145
0 c-27 -12 -67 -12 -85 0 -11 7 3 10 45 9 43 0 54 -3 40 -9z m145 0 c-18 -12
-68 -12 -95 0 -14 6 0 9 45 9 45 1 60 -2 50 -9z m110 0 c0 -5 -15 -10 -34 -10
-19 0 -38 5 -41 10 -4 6 10 10 34 10 23 0 41 -4 41 -10z m145 0 c4 -6 -17 -10
-54 -10 -34 0 -61 4 -61 10 0 6 24 10 54 10 30 0 58 -4 61 -10z"/>
<path d="M1222 5628 c-14 -14 -16 -68 -3 -68 5 0 11 10 14 23 2 12 8 30 12 40
8 20 -5 23 -23 5z"/>
<path d="M1508 5633 c-147 -2 -238 -7 -238 -13 0 -12 2389 -14 2408 -1 24 15
-1338 24 -2170 14z"/>
<path d="M3706 5621 c-8 -12 14 -61 26 -61 13 0 5 63 -9 67 -6 2 -14 0 -17 -6z"/>
<path d="M5314 5576 c-64 -43 -130 -117 -197 -222 -49 -77 -55 -82 -107 -99
-103 -33 -181 -77 -247 -138 -79 -74 -132 -150 -188 -271 -60 -128 -76 -197
-82 -366 -6 -171 5 -229 69 -360 73 -151 243 -292 447 -375 72 -29 78 -33 68
-51 -15 -26 -14 -164 1 -191 7 -13 22 -23 32 -23 24 0 24 -4 5 66 -19 74 -11
167 14 159 31 -10 166 -24 227 -25 l61 0 26 -59 c58 -133 87 -353 87 -653 0
-155 2 -188 14 -188 11 0 16 22 21 87 8 88 0 449 -11 513 -5 35 -5 34 73 -45
133 -135 242 -321 407 -695 44 -99 45 -100 22 -100 -58 0 -209 56 -350 130
-83 43 -186 90 -229 104 -76 26 -98 36 -202 96 -27 16 -56 30 -63 30 -8 0 -27
9 -43 21 -65 46 -170 32 -241 -31 -78 -68 -125 -188 -101 -257 8 -23 5 -41
-18 -98 -57 -143 -56 -252 3 -407 8 -22 19 -29 64 -38 30 -6 54 -14 54 -18 -1
-4 -15 -16 -32 -27 -18 -11 -41 -36 -52 -55 l-19 -35 39 36 c21 19 58 47 81
62 39 25 51 27 140 27 142 -1 220 -18 493 -109 135 -44 277 -88 315 -96 122
-28 205 -59 205 -77 0 -4 5 -8 10 -8 17 0 11 17 -16 50 l-27 31 26 27 c60 64
124 204 142 309 11 69 -10 56 -29 -17 -25 -96 -77 -211 -122 -270 -35 -46 -41
-50 -81 -50 -28 0 -104 23 -225 69 -101 38 -230 84 -288 102 -58 18 -107 33
-108 35 -2 1 12 42 31 91 58 146 116 340 123 409 4 35 8 64 10 64 5 0 248
-132 349 -190 194 -111 270 -138 356 -124 l39 7 -116 64 c-64 36 -130 73 -147
83 l-31 19 65 3 c63 3 64 3 61 30 -6 64 -216 506 -295 623 -66 98 -173 221
-235 268 -51 40 -59 51 -71 98 -8 30 -24 78 -38 108 -13 30 -22 55 -21 56 2 1
41 11 88 23 237 62 394 182 534 410 36 57 63 67 139 47 175 -45 290 -173 349
-390 19 -70 22 -106 22 -295 1 -209 0 -220 -37 -410 -75 -382 -126 -725 -167
-1113 -22 -214 -37 -270 -92 -342 -62 -83 -79 -86 -258 -46 -180 40 -352 49
-740 41 l-355 -8 -40 23 c-65 37 -78 58 -84 133 -8 87 -26 82 -26 -7 0 -57 4
-75 23 -101 l23 -31 -38 7 c-114 20 -144 49 -144 138 0 31 3 70 6 86 12 54
-14 32 -31 -26 -19 -65 -11 -147 16 -174 21 -21 116 -58 184 -71 27 -5 140 -9
252 -10 143 0 205 -4 212 -12 6 -7 27 -118 47 -247 47 -304 47 -302 90 -323
41 -19 44 -36 13 -78 -20 -26 -21 -33 -10 -61 14 -38 12 -41 -19 -30 -13 5
-75 15 -137 22 -124 14 -244 9 -357 -15 -73 -15 -165 -52 -165 -67 0 -12 14
-10 67 11 86 34 190 44 346 36 78 -4 172 -8 209 -9 38 -1 73 -7 80 -14 30 -30
158 8 158 48 0 17 3 19 19 10 29 -15 33 -12 20 12 -9 16 -9 23 0 26 33 11 -9
76 -46 70 -28 -5 -28 34 1 63 31 31 34 48 51 323 8 125 16 231 19 233 8 9 234
-17 335 -38 52 -10 121 -19 155 -19 l60 0 54 57 c97 103 120 172 152 473 29
271 102 751 175 1145 54 289 36 554 -50 742 -43 94 -77 137 -148 189 -76 56
-156 86 -230 85 -51 0 -58 2 -53 17 44 146 48 177 43 312 -4 111 -9 149 -31
215 -111 330 -396 555 -748 590 -38 4 -68 11 -68 16 0 13 171 186 190 192 8 2
12 7 8 11 -8 9 -63 -19 -105 -53 -18 -15 -57 -58 -88 -96 -54 -69 -56 -70
-135 -91 -44 -11 -80 -17 -80 -13 0 10 65 106 108 158 20 24 62 64 94 89 53
41 70 62 50 62 -4 0 -30 -15 -58 -34z m-74 -301 c0 -20 27 -19 38 2 8 14 23
15 108 10 111 -7 181 -25 269 -69 190 -96 323 -228 409 -407 54 -113 69 -195
64 -363 -4 -133 -6 -149 -36 -223 -44 -110 -102 -196 -193 -287 -62 -62 -95
-85 -170 -121 -145 -70 -245 -91 -404 -84 -148 6 -222 24 -354 87 -232 111
-383 286 -427 492 -21 95 -13 281 16 393 59 231 214 431 384 494 90 33 96 34
96 16 0 -9 3 -15 8 -13 11 6 54 25 82 36 l25 11 -25 8 c-22 6 -18 9 30 19 75
16 80 16 80 -1z m-121 -2371 c12 -9 31 -37 42 -62 18 -42 19 -49 5 -96 -25
-86 -101 -139 -199 -140 -52 -1 -61 2 -83 27 -32 37 -32 93 0 155 24 47 72 99
111 120 30 17 97 14 124 -4z m131 -60 l25 -14 -29 2 c-16 2 -31 9 -34 16 -5
16 7 15 38 -4z m202 -104 c94 -34 199 -90 393 -208 77 -47 178 -103 224 -124
46 -21 81 -41 78 -44 -9 -10 -102 37 -282 141 -258 149 -422 231 -490 245 -92
19 -120 31 -56 25 29 -3 89 -19 133 -35z m-110 -14 c95 -21 168 -54 168 -76 0
-76 -134 -539 -161 -556 -20 -12 -280 25 -344 49 -45 17 -66 8 -44 -19 12 -14
11 -16 -6 -13 -15 3 -24 20 -37 69 -21 83 -22 142 -2 238 26 124 34 138 93
152 88 21 171 92 195 167 6 18 11 20 39 13 18 -5 62 -16 99 -24z m-432 -166
c12 -7 11 -18 -9 -73 -29 -82 -39 -232 -21 -307 10 -43 10 -54 -1 -61 -20 -12
-27 -1 -50 81 -17 59 -20 93 -17 174 6 151 43 221 98 186z m719 -1047 c0 -32
-6 -155 -12 -273 l-12 -215 -72 0 c-53 0 -77 4 -88 16 -10 10 -22 53 -30 105
-8 49 -25 161 -40 249 -14 88 -25 164 -25 168 0 4 63 7 140 7 l140 0 -1 -57z
m-71 -624 c-3 -68 -5 -74 -25 -77 -22 -3 -23 -1 -23 77 0 68 3 80 18 84 28 6
33 -7 30 -84z m49 9 c-3 -8 -6 -5 -6 6 -1 11 2 17 5 13 3 -3 4 -12 1 -19z m11
-33 c-11 -20 -23 -34 -25 -31 -6 6 29 66 39 66 4 0 -2 -16 -14 -35z m-148 -21
c0 -8 -5 -12 -10 -9 -6 4 -8 11 -5 16 9 14 15 11 15 -7z"/>
<path d="M5315 5104 c-39 -20 -61 -42 -52 -51 4 -4 21 1 36 10 20 11 51 17 97
17 80 0 123 -23 153 -82 21 -42 31 -40 31 7 0 37 -29 79 -70 100 -39 20 -156
20 -195 -1z"/>
<path d="M4881 5069 c-49 -15 -110 -56 -123 -84 -17 -39 -1 -42 35 -7 33 32
93 62 124 62 10 0 31 -7 47 -15 45 -24 62 -1 26 35 -21 21 -55 24 -109 9z"/>
<path d="M5357 4850 c-34 -27 -43 -70 -22 -109 43 -85 166 17 126 105 -14 31
-67 33 -104 4z"/>
<path d="M4915 4775 c-29 -28 -32 -70 -9 -103 28 -40 86 -23 110 33 32 77 -43
129 -101 70z"/>
<path d="M5503 4270 c-171 -161 -436 -287 -526 -251 -60 25 -77 25 -77 3 0
-21 60 -52 103 -52 102 0 326 110 465 228 50 42 110 117 101 126 -2 2 -32 -22
-66 -54z"/>
<path d="M5106 2592 c-3 -5 -12 -42 -21 -83 -8 -41 -35 -136 -59 -211 -43
-136 -46 -176 -6 -98 47 92 110 302 110 367 0 31 -12 44 -24 25z"/>
<path d="M1350 5550 c0 -12 17 -12 45 0 17 7 15 9 -12 9 -18 1 -33 -3 -33 -9z"/>
<path d="M3604 5512 c-62 -51 -91 -82 -79 -82 6 0 34 22 139 112 5 4 7 10 4
13 -3 3 -32 -16 -64 -43z"/>
<path d="M3738 5544 c-11 -11 -10 -1314 1 -1314 15 0 23 563 14 953 -4 203
-11 365 -15 361z"/>
<path d="M1217 5475 c-10 -98 -9 -1533 1 -1539 5 -3 12 79 15 182 9 237 7
1229 -2 1342 l-6 85 -8 -70z"/>
<path d="M1290 5519 c0 -5 5 -7 10 -4 6 3 10 8 10 11 0 2 -4 4 -10 4 -5 0 -10
-5 -10 -11z"/>
<path d="M3629 5483 c-65 -72 -64 -84 1 -18 24 25 40 45 34 45 -6 0 -21 -12
-35 -27z"/>
<path d="M1430 5450 c0 -6 85 -10 243 -10 l244 0 6 -137 c4 -75 7 -204 7 -287
0 -83 5 -158 10 -166 7 -10 9 90 7 295 l-2 310 -257 3 c-170 1 -258 -1 -258
-8z"/>
<path d="M2115 5448 c-3 -7 -1 -42 3 -78 l7 -65 130 -6 c184 -9 489 -9 440 1
-22 4 -146 10 -275 14 -129 3 -245 9 -258 12 -21 6 -23 12 -20 58 l3 51 310 5
c174 3 295 8 276 13 -18 4 -164 7 -323 7 -222 0 -290 -3 -293 -12z"/>
<path d="M1421 5058 c1 -220 5 -347 10 -323 12 59 11 685 -1 685 -7 0 -10
-127 -9 -362z"/>
<path d="M2780 5409 c0 -5 5 -7 10 -4 6 3 10 8 10 11 0 2 -4 4 -10 4 -5 0 -10
-5 -10 -11z"/>
<path d="M3070 5379 c-54 -33 -89 -69 -118 -124 -25 -45 -27 -60 -27 -160 0
-100 3 -116 29 -172 35 -76 102 -142 171 -169 40 -15 76 -19 185 -19 129 0
137 1 182 27 59 35 112 98 133 157 27 74 31 211 10 268 -53 138 -223 222 -395
196 l-55 -9 92 -7 c161 -12 264 -67 317 -170 25 -48 29 -68 28 -133 -1 -146
-58 -248 -164 -294 -46 -20 -64 -22 -153 -18 -173 9 -274 67 -331 190 -26 56
-29 74 -29 163 0 92 2 104 29 153 19 34 48 66 80 89 65 46 72 53 61 53 -6 0
-26 -10 -45 -21z"/>
<path d="M2203 5183 l-83 -4 0 -56 c0 -62 10 -65 19 -6 l6 38 255 6 c409 10
427 11 275 20 -132 7 -323 8 -472 2z"/>
<path d="M2798 5154 c-5 -4 -8 -30 -8 -58 1 -40 3 -47 11 -33 11 19 8 103 -3
91z"/>
<path d="M2140 5053 c0 -7 52 -13 138 -17 191 -8 425 -5 415 5 -13 13 -553 24
-553 12z"/>
<path d="M2137 4943 c-4 -3 -6 -36 -6 -72 1 -52 3 -59 9 -36 4 17 8 47 9 67
l1 37 128 -5 c70 -2 211 -7 315 -10 l187 -6 0 -42 c0 -30 3 -37 10 -26 16 25
12 87 -6 94 -21 8 -639 8 -647 -1z"/>
<path d="M2250 4810 c132 -11 518 -10 460 1 -25 4 -160 7 -300 7 -192 -1 -232
-3 -160 -8z"/>
<path d="M2120 4660 c0 -73 17 -72 22 0 l3 45 70 -3 c39 -1 177 -7 308 -12
131 -5 242 -12 248 -15 5 -4 9 -15 9 -26 0 -10 5 -19 10 -19 6 0 10 11 10 24
0 14 6 28 13 33 22 14 -72 21 -385 29 l-308 7 0 -63z"/>
<path d="M1910 4690 c0 -6 -83 -10 -230 -10 -126 0 -230 -4 -230 -8 0 -12 327
-24 413 -15 56 5 67 9 67 24 0 11 -4 19 -10 19 -5 0 -10 -4 -10 -10z"/>
<path d="M2233 4593 c-60 -3 -93 -8 -93 -15 0 -13 549 -2 596 12 28 8 -298 10
-503 3z"/>
<path d="M2131 4486 c-9 -11 -11 -30 -6 -63 6 -38 9 -44 16 -28 4 11 8 34 8
51 l1 30 73 -8 c39 -4 173 -10 297 -13 l225 -4 3 -26 c5 -38 22 -30 22 10 l0
35 -72 0 c-127 1 -504 18 -530 25 -16 4 -29 1 -37 -9z"/>
<path d="M3350 4450 c0 -5 20 -10 45 -10 25 0 45 5 45 10 0 6 -20 10 -45 10
-25 0 -45 -4 -45 -10z"/>
<path d="M3108 4443 c12 -2 30 -2 40 0 9 3 -1 5 -23 4 -22 0 -30 -2 -17 -4z"/>
<path d="M3010 4350 c0 -33 4 -60 10 -60 6 0 10 27 10 60 0 33 -4 60 -10 60
-6 0 -10 -27 -10 -60z"/>
<path d="M2172 4372 c-22 -15 93 -22 312 -21 124 1 186 4 161 9 -62 12 -458
22 -473 12z"/>
<path d="M1647 4343 c-119 -2 -186 -7 -182 -13 4 -6 72 -10 164 -10 187 0 324
10 296 21 -11 4 -36 7 -55 6 -19 -1 -120 -3 -223 -4z"/>
<path d="M1964 4280 c3 -25 8 -70 12 -100 12 -99 24 -89 18 15 -5 68 -11 105
-21 115 -14 13 -15 10 -9 -30z"/>
<path d="M1438 4304 c-5 -4 -8 -48 -7 -98 1 -75 2 -85 10 -58 11 38 8 168 -3
156z"/>
<path d="M3020 4179 c0 -5 5 -7 10 -4 6 3 10 8 10 11 0 2 -4 4 -10 4 -5 0 -10
-5 -10 -11z"/>
<path d="M1455 4060 c-4 -7 69 -10 212 -9 122 1 205 5 188 9 -46 12 -393 12
-400 0z"/>
<path d="M6354 4030 c39 -143 49 -199 61 -318 l14 -137 -3 165 c-2 141 -5 174
-24 225 -23 63 -61 115 -48 65z"/>
<path d="M3360 3988 c0 -4 30 -8 68 -7 77 1 73 6 -10 12 -32 2 -58 0 -58 -5z"/>
<path d="M1345 3970 c47 -12 1825 -12 1825 0 0 7 -315 10 -927 9 -511 -1 -914
-5 -898 -9z"/>
<path d="M3747 3910 c-5 -20 -14 -20 -1234 -21 -675 -1 -1239 -4 -1253 -8 -24
-7 -24 -7 9 -14 18 -4 584 -7 1257 -7 1199 0 1224 0 1234 19 12 24 13 51 1 51
-5 0 -11 -9 -14 -20z"/>
<path d="M5118 3365 c-2 -3 1 -33 8 -67 7 -35 16 -129 20 -210 4 -82 11 -148
15 -148 17 0 21 52 16 188 -5 162 -31 265 -59 237z"/>
<path d="M6395 3293 c-15 -99 -34 -278 -30 -282 7 -6 12 18 29 144 10 66 20
135 23 153 3 18 1 32 -5 32 -5 0 -13 -21 -17 -47z"/>
<path d="M3710 3304 c-20 -12 -82 -14 -323 -13 -164 1 -301 -1 -304 -5 -18
-18 38 -21 363 -21 l355 0 -24 -20 c-13 -11 -32 -25 -42 -31 -14 -7 -20 -26
-23 -72 -4 -55 -2 -65 22 -92 14 -18 26 -37 26 -45 0 -23 63 -33 118 -19 40
11 23 21 -33 20 -79 -1 -98 21 -99 110 -1 66 0 68 33 91 50 34 101 31 130 -8
29 -39 40 -30 12 10 -14 19 -38 35 -62 42 -24 8 -38 17 -35 25 7 19 -27 44
-60 43 -16 -1 -40 -7 -54 -15z"/>
<path d="M4155 3280 c-4 -6 14 -10 47 -9 45 1 49 3 23 9 -44 11 -63 11 -70 0z"/>
<path d="M4320 3280 c0 -12 642 -12 680 0 14 4 -134 8 -327 9 -229 1 -353 -3
-353 -9z"/>
<path d="M1540 3273 c-53 -5 -80 -13 -80 -21 0 -9 396 -5 450 5 33 6 34 6 10
13 -25 8 -313 10 -380 3z"/>
<path d="M1395 3230 c-23 -26 -4 -26 26 0 18 15 20 19 8 20 -9 0 -24 -9 -34
-20z"/>
<path d="M1281 3165 c-40 -25 -124 -82 -187 -126 l-114 -81 1 -77 c1 -103 14
-135 23 -58 l7 57 1356 0 c912 0 1360 3 1367 10 7 7 -425 10 -1357 10 -823 0
-1367 4 -1367 9 0 5 -3 16 -6 24 -4 11 45 49 180 138 167 110 204 139 178 139
-4 0 -41 -20 -81 -45z"/>
<path d="M1495 3168 c-27 -16 -40 -34 -70 -95 -29 -60 -31 -73 -10 -73 8 0 15
8 15 18 0 10 22 51 49 90 50 73 52 81 16 60z"/>
<path d="M3954 3103 c-3 -16 -8 -35 -10 -43 -5 -13 -3 -13 10 0 19 20 32 70
17 70 -6 0 -13 -12 -17 -27z"/>
<path d="M3480 3071 c0 -5 5 -11 12 -13 17 -6 0 -28 -30 -39 -19 -8 -23 -12
-13 -18 20 -13 51 -1 69 27 15 23 15 25 -3 38 -22 16 -35 18 -35 5z"/>
<path d="M1567 3013 c-46 -2 -75 -8 -72 -13 7 -12 1759 -13 1820 -1 36 6 31 8
-45 14 -83 7 -1548 6 -1703 0z"/>
<path d="M4817 2924 c-13 -13 5 -24 41 -24 48 0 73 15 40 23 -30 9 -73 9 -81
1z"/>
<path d="M3795 2900 c-14 -6 2 -9 52 -9 39 -1 75 4 78 9 8 12 -101 12 -130 0z"/>
<path d="M3977 2899 c16 -16 150 -21 328 -12 205 9 143 20 -124 22 -159 1
-212 -2 -204 -10z"/>
<path d="M4565 2890 c-10 -15 20 -23 67 -16 24 3 49 5 56 5 7 1 10 6 7 11 -8
13 -122 13 -130 0z"/>
<path d="M4146 2834 c-129 -32 -242 -120 -292 -228 -16 -36 -26 -80 -30 -132
-7 -89 11 -156 65 -243 16 -27 27 -52 24 -55 -4 -3 -19 -6 -34 -6 -40 0 -119
-58 -153 -113 -20 -32 -31 -65 -34 -101 -8 -103 46 -164 186 -210 140 -45 200
-58 223 -45 31 16 13 27 -76 50 -43 10 -84 24 -92 30 -7 7 -13 31 -13 55 0 24
-4 44 -10 44 -5 0 -10 -18 -10 -39 0 -22 -4 -42 -8 -45 -5 -3 -34 10 -67 28
-91 50 -117 122 -76 211 32 70 92 105 182 105 19 0 44 6 54 14 18 13 18 14 2
31 -54 53 -93 192 -83 288 19 187 184 317 401 317 64 0 128 -21 318 -102 76
-32 142 -56 147 -53 30 19 -8 41 -205 120 -206 83 -319 104 -419 79z m-46 -48
c0 -2 -19 -15 -43 -29 -93 -55 -167 -165 -186 -277 l-9 -55 -1 60 c-2 111 72
224 183 280 52 26 56 28 56 21z"/>
<path d="M6338 2780 c-4 -19 -12 -69 -18 -110 -6 -41 -13 -86 -16 -100 -4 -19
-3 -22 5 -10 19 27 42 146 39 201 -3 50 -4 52 -10 19z"/>
<path d="M1022 2753 c-27 -11 2 -23 54 -23 l54 0 2 -947 c1 -522 1 -959 1
-973 -3 -49 7 -67 39 -81 43 -18 126 -17 162 3 29 15 28 15 -49 22 -43 4 -86
11 -95 16 -20 11 -46 67 -36 77 4 4 28 7 54 8 26 0 54 3 62 5 11 4 16 -5 18
-38 2 -28 7 -42 15 -39 9 3 13 235 15 976 l2 972 80 -3 81 -3 -1 -732 c0 -649
1 -733 15 -733 12 0 15 13 15 60 l0 60 43 0 c23 0 51 3 63 6 20 5 22 1 27 -68
2 -40 3 -75 0 -78 -3 -3 -39 -6 -81 -6 -57 -1 -77 -5 -77 -15 0 -15 60 -31 90
-23 11 3 37 12 58 21 l37 16 0 289 c0 158 -4 288 -9 288 -16 0 -21 -60 -21
-237 l0 -174 -52 6 c-29 4 -59 8 -65 10 -10 4 -13 144 -13 660 l0 655 68 0 67
0 2 -383 c0 -210 6 -402 11 -427 7 -32 10 75 11 378 1 328 4 424 14 427 6 3
467 6 1024 7 793 2 1015 6 1025 16 10 9 -259 12 -1343 11 -744 0 -1360 -3
-1367 -6z m266 -940 l-3 -918 -29 -3 c-16 -2 -44 -1 -63 3 l-33 6 0 914 0 915
65 0 65 0 -2 -917z"/>
<path d="M3776 2751 c-4 -5 -2 -12 3 -15 5 -4 12 -2 15 3 4 5 2 12 -3 15 -5 4
-12 2 -15 -3z"/>
<path d="M4170 2720 c0 -6 57 -10 153 -10 102 0 147 4 137 10 -20 13 -290 13
-290 0z"/>
<path d="M4750 2720 c0 -5 5 -10 10 -10 6 0 10 5 10 10 0 6 -4 10 -10 10 -5 0
-10 -4 -10 -10z"/>
<path d="M4456 2217 c-17 -13 -16 -19 14 -113 91 -286 142 -582 225 -1324 14
-124 25 -228 25 -232 0 -3 -24 -14 -52 -24 -79 -25 -128 -52 -175 -95 -24 -22
-47 -39 -53 -39 -22 0 -10 70 21 115 43 64 84 76 167 50 16 -5 22 -3 22 7 0
23 -44 41 -89 36 -23 -2 -41 -1 -41 2 0 3 25 23 56 45 88 63 100 73 91 81 -12
13 -75 -26 -138 -83 -35 -33 -70 -79 -93 -122 -41 -79 -46 -125 -15 -141 16
-9 19 -18 14 -40 -5 -21 0 -35 18 -56 23 -26 32 -29 102 -32 187 -10 375 71
375 161 0 68 -55 117 -130 117 -54 0 -60 12 -60 115 0 155 -55 651 -106 960
-29 171 -60 303 -111 458 -19 60 -32 111 -30 114 3 2 64 -6 136 -18 107 -17
134 -19 146 -9 25 21 5 30 -111 49 -182 31 -189 32 -208 18z m353 -1722 c36
-18 81 -71 81 -95 0 -70 -314 -138 -398 -86 -23 14 -13 61 21 93 43 41 88 63
172 84 88 22 90 22 124 4z"/>
<path d="M4038 2179 c-25 -14 -23 -32 13 -129 55 -152 89 -339 134 -745 24
-214 57 -464 71 -535 8 -35 -6 -39 -63 -15 -47 20 -162 19 -237 -2 -68 -19
-146 -84 -146 -121 0 -56 115 -82 279 -63 117 14 155 27 189 64 23 25 24 27
13 114 -6 48 -25 212 -42 363 -66 602 -96 779 -155 937 -20 52 -33 98 -30 101
4 3 88 0 188 -6 99 -7 183 -10 186 -7 33 33 -348 75 -400 44z m110 -1451 c69
-10 87 -16 99 -35 8 -13 13 -29 10 -37 -19 -49 -334 -75 -392 -32 -41 30 25
85 126 105 62 12 64 12 157 -1z"/>
<path d="M4537 2152 c-36 -7 -4 -22 50 -22 31 0 54 3 50 6 -9 9 -79 20 -100
16z"/>
<path d="M4117 2113 c-10 -9 -9 -23 1 -23 5 0 17 7 28 15 19 14 19 14 -2 15
-11 0 -24 -3 -27 -7z"/>
<path d="M3899 2071 c-35 -35 -39 -44 -38 -87 l0 -49 13 48 c13 48 59 107 83
107 7 0 13 5 13 10 0 22 -34 8 -71 -29z"/>
<path d="M4248 2063 c-25 -29 -49 -83 -46 -101 3 -11 11 -1 24 28 12 25 28 51
37 59 18 14 22 31 9 31 -5 0 -16 -8 -24 -17z"/>
<path d="M4694 2064 c-34 -16 -91 -71 -83 -79 3 -2 28 12 56 33 28 20 59 42
69 49 29 18 -4 16 -42 -3z"/>
<path d="M4376 2012 c-18 -34 -33 -131 -18 -117 6 6 15 26 20 45 6 19 15 50
21 68 12 39 -3 43 -23 4z"/>
<path d="M4000 2011 c-12 -24 -14 -89 -1 -75 10 10 26 94 17 94 -3 0 -10 -9
-16 -19z"/>
<path d="M4267 1853 c-13 -13 -7 -50 17 -96 l23 -47 -48 0 c-50 0 -63 -12 -31
-28 23 -13 237 -35 287 -31 67 6 45 22 -50 36 -83 12 -93 15 -122 48 -18 19
-38 55 -45 80 -12 44 -18 52 -31 38z"/>
<path d="M5289 1495 c-4 -5 -3 -77 0 -160 l7 -150 8 115 c7 106 -1 219 -15
195z"/>
<path d="M5328 1195 c-4 -11 -9 -36 -13 -55 l-6 -35 16 28 c9 15 15 40 13 55
-3 24 -4 24 -10 7z"/>
<path d="M5346 1064 c-3 -9 -6 -23 -6 -32 1 -12 5 -10 15 8 8 14 14 28 15 33
0 13 -18 7 -24 -9z"/>
<path d="M5340 973 c0 -22 2 -25 10 -13 13 20 13 40 0 40 -5 0 -10 -12 -10
-27z"/>
<path d="M5358 873 c6 -2 18 -2 25 0 6 3 1 5 -13 5 -14 0 -19 -2 -12 -5z"/>
<path d="M5815 854 c-103 -21 -125 -27 -137 -41 -12 -14 -10 -15 17 -9 17 4
77 10 135 13 95 5 113 2 183 -21 100 -34 209 -89 323 -164 106 -70 121 -85 67
-70 -22 6 -62 33 -96 64 -67 62 -172 116 -282 144 -152 39 -393 18 -388 -34 1
-17 -4 -18 -71 -12 -82 7 -88 9 -171 33 -78 23 -410 26 -495 4 -57 -14 -135
-49 -128 -57 3 -2 39 5 81 16 112 28 323 36 465 16 121 -16 132 -20 132 -41 0
-17 38 -45 63 -45 10 0 30 12 44 28 14 15 20 19 13 10 -7 -10 -11 -18 -9 -19
49 -12 68 -8 88 17 12 15 21 33 21 41 0 23 49 34 147 34 153 -1 286 -40 431
-128 l93 -56 -39 -41 c-22 -23 -47 -55 -56 -73 -29 -59 -26 -70 65 -187 70
-89 241 -70 296 34 45 84 18 156 -73 200 -35 16 -58 35 -70 58 -39 72 -170
164 -342 238 -98 42 -230 63 -307 48z m595 -308 c0 -2 -18 -16 -40 -31 -28
-19 -50 -47 -70 -89 l-29 -61 -1 43 c0 71 39 127 95 135 17 2 33 5 38 6 4 0 7
-1 7 -3z m101 -73 c45 -23 56 -35 67 -67 35 -107 -68 -178 -187 -130 -70 28
-88 82 -52 160 33 72 82 82 172 37z"/>
<path d="M4623 646 c-40 -35 -25 -40 17 -5 19 15 30 29 23 29 -7 0 -25 -11
-40 -24z"/>
<path d="M4620 613 c0 -5 16 -16 35 -25 36 -18 49 -6 23 20 -13 13 -58 17 -58
5z"/>
</g>
</svg>
