<?xml version="1.0" standalone="no"?>
<!DOCTYPE svg PUBLIC "-//W3C//DTD SVG 20010904//EN"
 "http://www.w3.org/TR/2001/REC-SVG-20010904/DTD/svg10.dtd">
<svg version="1.0" xmlns="http://www.w3.org/2000/svg"
 width="768.000000pt" height="682.000000pt" viewBox="0 0 768.000000 682.000000"
 preserveAspectRatio="xMidYMid meet">

<g transform="translate(0.000000,682.000000) scale(0.100000,-0.100000)"
fill="#000000" stroke="none">
<path d="M5496 6521 c-3 -5 13 -12 36 -15 49 -8 113 -68 144 -134 20 -43 28
-50 39 -32 17 28 -47 135 -103 172 -28 19 -107 25 -116 9z"/>
<path d="M5328 6388 c-50 -18 -34 -35 30 -30 48 3 63 0 92 -20 19 -13 44 -40
55 -61 11 -20 23 -37 28 -37 14 0 7 76 -9 99 -35 49 -131 73 -196 49z"/>
<path d="M5325 6215 c-5 -2 -22 -6 -37 -9 -42 -9 -98 -130 -111 -241 -10 -76
-9 -90 7 -119 9 -18 30 -40 45 -49 l28 -16 -23 -108 c-59 -269 -82 -355 -164
-618 -49 -154 -91 -287 -94 -295 -3 -8 -14 -47 -26 -87 l-20 -72 -203 -134
c-365 -242 -874 -548 -1042 -627 -123 -58 -263 -112 -277 -108 -6 2 -20 37
-32 78 -12 41 -25 84 -29 96 -7 20 -3 21 60 27 202 17 443 148 570 309 149
189 210 365 200 572 -9 184 -70 350 -182 495 -125 164 -361 306 -555 337 l-44
6 29 24 c64 51 169 65 278 38 39 -9 36 21 -5 42 -72 37 -245 -5 -313 -77 -27
-27 -34 -29 -104 -30 -42 0 -106 -8 -143 -18 -38 -9 -68 -14 -68 -11 0 4 40
45 88 92 94 91 168 134 277 163 76 19 126 19 170 -2 42 -20 53 -12 32 20 -29
45 -141 41 -275 -9 -95 -35 -160 -83 -267 -196 -90 -96 -96 -100 -183 -133
-148 -55 -234 -121 -328 -252 -54 -75 -115 -203 -145 -303 -30 -104 -39 -375
-15 -470 22 -88 75 -193 135 -266 137 -169 462 -334 656 -334 30 0 60 -3 69
-6 16 -6 50 -105 62 -181 8 -50 29 -34 -309 -227 -254 -146 -632 -372 -866
-518 -79 -50 -152 -93 -162 -95 -27 -7 -335 304 -472 476 -225 283 -478 704
-571 953 l-25 67 47 26 c101 55 145 185 106 314 -8 28 -27 66 -42 82 -27 30
-30 31 -85 24 -65 -8 -82 -25 -111 -110 -22 -62 -32 -229 -17 -268 6 -15 24
-36 41 -45 16 -9 30 -25 30 -34 0 -33 64 -195 122 -313 128 -255 317 -555 474
-750 90 -112 393 -424 450 -463 l31 -21 180 112 c347 216 617 379 883 532 113
65 228 133 257 151 l52 33 10 -37 c21 -80 52 -260 71 -414 16 -133 20 -222 20
-501 0 -317 1 -338 18 -335 15 3 18 25 24 223 10 349 -12 655 -71 955 -12 58
-21 110 -21 116 0 6 35 24 78 39 103 36 273 117 407 194 316 181 864 526 1019
640 51 38 57 46 76 114 12 39 52 171 90 292 38 121 84 276 104 345 35 122 96
412 96 457 0 14 10 28 28 37 35 18 75 61 98 106 28 52 27 219 -1 275 -19 38
-47 52 -80 40z m42 -61 c12 -18 18 -54 21 -113 4 -79 2 -92 -22 -139 -39 -77
-86 -93 -133 -46 -25 25 -26 29 -20 104 8 96 29 151 73 190 42 37 59 38 81 4z
m-1977 -555 c158 -19 300 -85 442 -204 224 -189 334 -485 287 -774 -19 -121
-111 -298 -211 -407 -84 -92 -255 -185 -405 -220 -88 -20 -338 -15 -428 10
-85 23 -268 115 -346 174 -185 140 -278 326 -279 552 0 265 86 496 244 655
104 104 188 143 349 160 58 7 80 25 30 25 -48 1 -1 20 70 29 91 12 152 12 247
0z m-2381 -805 c84 -70 75 -271 -13 -325 -42 -26 -72 -24 -101 6 -23 22 -25
32 -25 107 0 91 22 192 47 220 23 25 56 22 92 -8z"/>
<path d="M3403 5344 c-25 -11 -12 -24 25 -24 20 -1 62 -9 92 -20 64 -23 93
-25 88 -8 -9 26 -69 50 -131 54 -34 2 -68 1 -74 -2z"/>
<path d="M2959 5271 c-55 -35 -103 -85 -97 -102 3 -8 18 0 44 23 21 19 58 47
82 62 23 15 40 31 37 36 -9 15 -17 13 -66 -19z"/>
<path d="M3447 5183 c-26 -7 -47 -56 -47 -113 0 -44 5 -56 29 -81 70 -69 150
3 122 109 -20 73 -51 99 -104 85z"/>
<path d="M2996 5134 c-22 -22 -29 -56 -24 -120 11 -126 109 -155 155 -45 41
96 -66 231 -131 165z"/>
<path d="M3846 4754 c-151 -103 -448 -174 -726 -174 -72 0 -154 7 -195 15
-112 24 -108 27 -103 -57 9 -186 160 -350 369 -404 81 -21 236 -14 326 14 167
53 288 189 346 392 29 99 42 202 30 224 -8 14 -14 12 -47 -10z m2 -85 c-15
-84 -56 -217 -84 -271 -33 -64 -115 -147 -174 -176 -84 -40 -166 -55 -277 -50
-96 4 -107 7 -197 51 -64 31 -111 61 -141 92 -47 48 -110 165 -122 224 -6 33
-6 34 23 27 154 -39 379 -32 629 19 120 25 255 71 305 105 25 16 46 30 46 30
1 0 -3 -23 -8 -51z"/>
<path d="M631 4859 c-11 -18 -27 -64 -36 -101 -16 -72 -21 -218 -6 -218 4 0
11 33 14 73 4 39 18 117 32 171 13 55 23 102 20 104 -2 2 -13 -11 -24 -29z"/>
<path d="M755 4833 c-51 -55 -70 -198 -35 -262 21 -40 31 -12 24 68 -7 83 11
166 42 191 7 7 14 16 14 21 0 17 -19 9 -45 -18z"/>
<path d="M5117 4630 c-3 -8 -8 -28 -11 -43 -7 -28 -85 -115 -121 -135 -25 -13
-14 -26 14 -17 47 15 115 90 130 143 9 30 -3 79 -12 52z"/>
<path d="M5985 3463 c-92 -16 -129 -28 -164 -54 -39 -28 -52 -49 -31 -49 6 0
29 12 52 28 38 25 49 27 132 26 50 0 102 -3 115 -5 13 -2 26 1 28 8 8 22 -84
55 -132 46z"/>
<path d="M5866 3228 c-10 -13 -60 -66 -110 -118 -113 -118 -541 -579 -580
-626 -16 -19 -26 -38 -22 -41 10 -10 142 124 437 444 147 160 273 294 279 298
7 4 16 3 21 -2 5 -5 45 -152 89 -325 43 -174 95 -372 114 -440 19 -67 51 -180
70 -249 47 -169 156 -501 169 -517 33 -41 289 85 419 206 55 51 111 131 121
174 9 36 -15 60 -51 52 -101 -23 -215 -100 -352 -238 -57 -58 -108 -106 -112
-106 -17 0 -206 635 -308 1035 -81 314 -134 475 -157 475 -5 0 -17 -10 -27
-22z m974 -1194 c0 -23 -66 -118 -108 -155 -111 -98 -362 -223 -362 -180 0 4
60 66 133 137 92 90 151 139 196 163 95 50 141 62 141 35z"/>
<path d="M1747 2813 c-13 -12 -7 -31 19 -62 50 -60 144 -62 239 -6 26 15 45
28 43 30 -2 2 -37 -6 -78 -16 -92 -24 -131 -17 -176 27 -36 37 -37 37 -47 27z"/>
<path d="M4967 2423 c-13 -12 -7 -23 13 -23 16 0 29 -16 51 -62 l31 -63 -5 57
c-2 37 -10 65 -22 78 -18 19 -55 27 -68 13z"/>
<path d="M1590 2381 c-57 -30 -92 -82 -98 -143 -5 -61 8 -56 27 9 14 51 50 96
91 113 16 7 30 19 30 26 0 18 -9 18 -50 -5z"/>
<path d="M1784 2321 c-36 -22 -70 -66 -79 -104 -4 -15 -2 -80 4 -144 6 -65 18
-210 26 -323 9 -113 29 -344 45 -515 17 -170 39 -424 51 -564 11 -140 24 -261
29 -270 4 -9 19 -26 32 -39 l25 -22 1391 -7 1391 -6 6 -24 c3 -13 3 -28 0 -33
-4 -6 -2 -10 2 -10 18 0 33 25 33 57 0 18 9 49 19 70 16 30 24 90 41 293 11
140 34 388 50 550 16 162 36 390 45 505 8 116 20 265 26 332 12 138 8 171 -28
214 -54 63 62 59 -1580 59 -1453 0 -1499 -1 -1529 -19z m3047 -37 c48 -24 62
-72 55 -179 -13 -176 -37 -444 -67 -740 -17 -165 -43 -443 -59 -618 -28 -319
-28 -319 -56 -348 l-28 -29 -1361 0 -1361 0 -26 28 c-33 34 -34 39 -58 327
-11 132 -34 375 -50 540 -16 165 -41 438 -55 608 -29 347 -27 374 28 407 31
20 62 20 1520 20 1331 0 1491 -2 1518 -16z"/>
<path d="M4445 2220 c-4 -6 14 -10 47 -10 38 0 49 3 38 10 -20 13 -77 13 -85
0z"/>
<path d="M4700 2223 c0 -5 14 -16 30 -25 18 -10 39 -35 49 -59 l19 -41 7 30
c7 35 -5 64 -37 86 -23 16 -68 22 -68 9z"/>
<path d="M2050 2210 c-19 -4 226 -8 545 -9 378 0 575 3 565 9 -18 11 -1056 11
-1110 0z"/>
<path d="M3335 2210 c-7 -12 733 -12 780 0 17 4 -151 8 -372 9 -258 1 -404 -3
-408 -9z"/>
<path d="M1852 2190 c-13 -12 -22 -32 -21 -48 0 -25 1 -26 12 -8 7 11 22 30
35 42 12 11 22 24 22 28 0 13 -27 5 -48 -14z"/>
<path d="M1831 1750 c0 -36 11 -146 23 -245 l24 -180 1 112 c1 115 -22 334
-39 362 -7 11 -9 -4 -9 -49z"/>
<path d="M2962 1768 c-16 -16 -16 -113 1 -125 6 -6 39 -11 72 -12 33 -1 138
-6 233 -12 171 -11 276 -7 287 12 4 5 0 11 -7 14 -7 3 -131 9 -276 14 -144 6
-267 13 -272 16 -6 3 -10 22 -10 41 l0 34 273 0 c149 0 278 -4 286 -9 8 -5 11
-16 7 -29 -4 -11 -3 -23 2 -26 12 -7 35 47 30 71 -3 17 -22 18 -308 21 -230 2
-309 -1 -318 -10z"/>
<path d="M4765 1630 c-4 -6 -13 -95 -20 -198 -8 -103 -17 -216 -20 -252 -3
-35 -3 -62 0 -59 16 16 45 226 51 364 7 145 5 170 -11 145z"/>
<path d="M1885 1040 c-3 -6 -3 -20 1 -33 7 -21 7 -21 15 -2 4 11 8 26 8 33 1
14 -15 16 -24 2z"/>
<path d="M4685 960 c-3 -5 -2 -10 4 -10 5 0 13 5 16 10 3 6 2 10 -4 10 -5 0
-13 -4 -16 -10z"/>
<path d="M4678 654 c-5 -4 -8 -19 -8 -33 1 -23 2 -24 11 -8 11 19 9 53 -3 41z"/>
<path d="M6990 2283 c0 -6 17 -22 39 -36 21 -14 49 -42 61 -62 12 -20 25 -34
27 -31 13 12 -10 75 -35 99 -28 27 -92 48 -92 30z"/>
<path d="M1180 459 c-71 -14 -142 -54 -207 -118 -63 -61 -83 -95 -65 -113 7
-7 15 0 25 23 20 47 97 115 170 150 34 16 68 29 75 29 8 0 12 -19 12 -62 0
-67 10 -95 30 -83 8 5 11 31 8 79 l-3 71 35 -3 c41 -4 94 -27 112 -49 7 -9 29
-43 49 -77 34 -59 69 -85 69 -51 0 27 -52 125 -83 154 -30 30 -113 62 -156 60
-14 -1 -46 -5 -71 -10z"/>
<path d="M1851 342 c-15 -29 -14 -112 2 -113 6 -1 -6 -5 -28 -10 -22 -4 -280
-8 -572 -8 -467 -1 -533 -3 -533 -16 0 -13 288 -15 2530 -15 2242 0 2530 2
2530 15 0 13 -66 15 -530 15 -515 0 -530 1 -530 19 0 16 -6 19 -37 15 -21 -2
-652 -6 -1403 -9 -751 -3 -1374 -6 -1385 -8 -18 -2 -20 4 -20 60 -1 69 -8 85
-24 55z"/>
</g>
</svg>
